<svg xmlns="http://www.w3.org/2000/svg" xmlns:xlink="http://www.w3.org/1999/xlink" width="800" zoomAndPan="magnify" viewBox="0 0 600 899.99999" height="1200" preserveAspectRatio="xMidYMid meet" version="1.0"><path fill="#fdfeff" d="M 75.671875 135.511719 L 44.902344 730.957031 L 558.761719 757.53125 L 589.53125 162.085938 Z M 528.621094 637.773438 L 87.648438 615.058594 L 110.355469 173.898438 L 551.328125 196.609375 Z M 528.621094 637.773438 " fill-opacity="1" fill-rule="nonzero"/><path fill="#fff09d" d="M 602.019531 269.636719 C 602.53125 270.601562 603.097656 271.511719 603.667969 272.417969 L 421.046875 182.527344 C 421.28125 182.285156 421.453125 182 421.554688 181.675781 C 422.519531 179.179688 420.023438 176.734375 417.582031 175.601562 C 415.140625 174.464844 412.304688 173.613281 411.109375 171.226562 C 417.539062 171.4375 423.765625 170.414062 429.789062 168.160156 L 422.804688 163.5625 C 424.679688 159.359375 433.25 162.824219 434.667969 158.394531 C 435.578125 155.613281 432.113281 153.511719 429.390625 152.714844 C 432.058594 152.714844 433.136719 149.140625 432.683594 146.414062 C 432.226562 143.6875 431.261719 140.734375 433.25 138.632812 C 434.996094 137.558594 436.886719 137.121094 438.925781 137.328125 C 441.027344 137.328125 443.46875 136.25 443.582031 134.203125 C 443.582031 130.058594 435.125 130.855469 434.726562 126.707031 C 435.226562 126.863281 435.734375 126.96875 436.253906 127.027344 C 436.773438 127.089844 437.292969 127.105469 437.816406 127.070312 C 438.339844 127.039062 438.851562 126.957031 439.359375 126.832031 C 439.867188 126.707031 440.359375 126.535156 440.835938 126.320312 C 441.3125 126.105469 441.765625 125.847656 442.195312 125.550781 C 442.625 125.253906 443.027344 124.921875 443.398438 124.550781 C 443.765625 124.183594 444.101562 123.785156 444.398438 123.355469 C 444.699219 122.925781 444.953125 122.472656 445.171875 121.996094 C 445.746094 120.769531 445.972656 119.480469 445.851562 118.132812 L 630.234375 208.988281 C 629.621094 209.277344 629.074219 209.65625 628.585938 210.125 C 626.882812 211.714844 626.714844 215.007812 628.585938 215.804688 C 629.4375 216.203125 630.402344 216.089844 631.199219 216.542969 C 631.382812 216.695312 631.546875 216.863281 631.695312 217.054688 C 631.839844 217.242188 631.964844 217.445312 632.066406 217.660156 C 632.167969 217.875 632.246094 218.101562 632.300781 218.332031 C 632.351562 218.566406 632.378906 218.800781 632.378906 219.042969 C 632.378906 219.28125 632.351562 219.515625 632.300781 219.75 C 632.246094 219.980469 632.167969 220.207031 632.066406 220.421875 C 631.964844 220.636719 631.839844 220.839844 631.695312 221.027344 C 631.546875 221.21875 631.382812 221.386719 631.199219 221.539062 C 629.476562 222.675781 627.585938 223.207031 625.523438 223.128906 C 625.878906 223.085938 626.238281 223.082031 626.597656 223.125 C 626.957031 223.164062 627.304688 223.246094 627.644531 223.367188 C 627.984375 223.492188 628.304688 223.652344 628.605469 223.851562 C 628.90625 224.046875 629.183594 224.277344 629.429688 224.542969 C 629.675781 224.804688 629.890625 225.09375 630.070312 225.40625 C 630.25 225.71875 630.390625 226.046875 630.492188 226.394531 C 630.59375 226.742188 630.65625 227.09375 630.675781 227.453125 C 630.691406 227.816406 630.667969 228.171875 630.605469 228.527344 C 630.539062 228.882812 630.433594 229.226562 630.285156 229.554688 C 630.140625 229.886719 629.957031 230.195312 629.738281 230.480469 C 629.519531 230.769531 629.273438 231.027344 628.992188 231.253906 C 628.714844 231.484375 628.410156 231.675781 628.085938 231.835938 C 627.761719 231.992188 627.421875 232.109375 627.070312 232.1875 C 626.71875 232.265625 626.363281 232.300781 626 232.292969 C 625.640625 232.289062 625.285156 232.238281 624.933594 232.148438 C 624.585938 232.058594 624.25 231.929688 623.933594 231.761719 L 628.984375 239.03125 L 613.769531 237.722656 C 613.316406 240.960938 615.871094 243.742188 617.859375 246.242188 C 619.84375 248.738281 621.433594 252.769531 619.21875 255.15625 C 616.15625 258.507812 610.195312 254.757812 606.277344 257.03125 C 608.699219 258.105469 610.878906 259.542969 612.824219 261.34375 C 614.765625 263.140625 616.371094 265.207031 617.632812 267.535156 Z M 602.019531 269.636719 " fill-opacity="0.84" fill-rule="nonzero"/><path fill="#fff09d" d="M 185.914062 779.394531 L 187.558594 782.175781 L 4.9375 692.230469 C 5.175781 692.007812 5.347656 691.742188 5.449219 691.433594 C 6.359375 688.9375 3.917969 686.496094 1.476562 685.359375 C -0.964844 684.222656 -3.804688 683.371094 -4.996094 680.988281 C 1.4375 681.179688 7.660156 680.136719 13.679688 677.863281 L 6.699219 673.320312 C 8.570312 669.175781 17.144531 672.582031 18.5625 668.210938 C 19.472656 665.371094 16.007812 663.328125 13.226562 662.53125 C 15.953125 662.53125 17.03125 658.953125 16.574219 656.285156 C 16.121094 653.617188 15.15625 650.605469 17.144531 648.503906 C 19.128906 646.40625 20.945312 647.3125 22.820312 647.144531 C 24.695312 646.972656 27.363281 646.0625 27.476562 644.078125 C 27.476562 639.929688 19.015625 640.667969 18.621094 636.582031 C 19.121094 636.730469 19.636719 636.835938 20.15625 636.894531 C 20.679688 636.953125 21.203125 636.960938 21.726562 636.925781 C 22.25 636.886719 22.769531 636.804688 23.277344 636.671875 C 23.785156 636.542969 24.277344 636.367188 24.753906 636.144531 C 25.234375 635.925781 25.6875 635.664062 26.117188 635.359375 C 26.546875 635.058594 26.945312 634.71875 27.3125 634.34375 C 27.679688 633.96875 28.011719 633.5625 28.304688 633.128906 C 28.601562 632.695312 28.851562 632.234375 29.066406 631.753906 C 29.636719 630.527344 29.863281 629.242188 29.746094 627.894531 L 214.128906 718.75 C 213.523438 719.023438 212.972656 719.382812 212.480469 719.828125 C 210.777344 721.417969 210.609375 724.769531 212.480469 725.507812 C 213.277344 725.902344 214.296875 725.847656 215.09375 726.300781 C 215.886719 726.753906 216.511719 729.992188 215.09375 731.296875 C 213.371094 732.433594 211.476562 732.964844 209.414062 732.886719 C 209.785156 732.851562 210.15625 732.855469 210.527344 732.902344 C 210.898438 732.953125 211.257812 733.042969 211.605469 733.175781 C 211.957031 733.308594 212.285156 733.480469 212.59375 733.691406 C 212.902344 733.902344 213.179688 734.144531 213.433594 734.421875 C 213.683594 734.699219 213.898438 735 214.078125 735.328125 C 214.261719 735.65625 214.398438 735.996094 214.5 736.359375 C 214.601562 736.71875 214.65625 737.085938 214.671875 737.457031 C 214.683594 737.832031 214.65625 738.199219 214.582031 738.566406 C 214.492188 738.914062 214.367188 739.246094 214.207031 739.5625 C 214.046875 739.882812 213.851562 740.179688 213.625 740.457031 C 213.398438 740.734375 213.144531 740.980469 212.863281 741.203125 C 212.582031 741.421875 212.28125 741.609375 211.960938 741.765625 C 211.636719 741.917969 211.300781 742.035156 210.953125 742.117188 C 210.605469 742.199219 210.253906 742.238281 209.898438 742.242188 C 209.539062 742.246094 209.1875 742.210938 208.835938 742.136719 C 208.488281 742.0625 208.152344 741.953125 207.824219 741.804688 L 212.878906 749.070312 L 197.664062 747.765625 C 197.210938 750.945312 199.765625 753.445312 201.75 756.285156 C 203.738281 759.121094 205.328125 762.8125 203.058594 765.199219 C 200.046875 768.492188 194.089844 764.800781 190.171875 767.074219 C 192.597656 768.140625 194.78125 769.574219 196.726562 771.375 C 198.671875 773.175781 200.273438 775.242188 201.523438 777.578125 C 196.472656 778.03125 191.191406 778.65625 185.914062 779.394531 Z M 185.914062 779.394531 " fill-opacity="0.84" fill-rule="nonzero"/></svg>