<svg xmlns="http://www.w3.org/2000/svg" xmlns:xlink="http://www.w3.org/1999/xlink" width="800" zoomAndPan="magnify" viewBox="0 0 600 899.99999" height="1200" preserveAspectRatio="xMidYMid meet" version="1.0"><defs><g/><clipPath id="3922c4e9f2"><path d="M 60 170.4375 L 205.5 170.4375 L 205.5 275.4375 L 60 275.4375 Z M 60 170.4375 " clip-rule="nonzero"/></clipPath><clipPath id="c8bf4fe4a1"><path d="M 82 261 L 97 261 L 97 275.4375 L 82 275.4375 Z M 82 261 " clip-rule="nonzero"/></clipPath><clipPath id="31043610a4"><path d="M 99 261 L 115 261 L 115 275.4375 L 99 275.4375 Z M 99 261 " clip-rule="nonzero"/></clipPath><clipPath id="95ad5dcfca"><path d="M 117 261 L 132 261 L 132 275.4375 L 117 275.4375 Z M 117 261 " clip-rule="nonzero"/></clipPath><clipPath id="b73576dda0"><path d="M 134 261 L 149 261 L 149 275.4375 L 134 275.4375 Z M 134 261 " clip-rule="nonzero"/></clipPath><clipPath id="282219880c"><path d="M 151 261 L 166 261 L 166 275.4375 L 151 275.4375 Z M 151 261 " clip-rule="nonzero"/></clipPath><clipPath id="466d1f5c0e"><path d="M 168 261 L 184 261 L 184 275.4375 L 168 275.4375 Z M 168 261 " clip-rule="nonzero"/></clipPath><clipPath id="85332192fd"><path d="M 404.753906 132.875 L 548 132.875 L 548 275.375 L 404.753906 275.375 Z M 404.753906 132.875 " clip-rule="nonzero"/></clipPath><clipPath id="3b40e250dc"><path d="M 123 385.542969 L 143 385.542969 L 143 404 L 123 404 Z M 123 385.542969 " clip-rule="nonzero"/></clipPath><clipPath id="b99265d8ca"><path d="M 396 428.609375 L 556 428.609375 L 556 473 L 396 473 Z M 396 428.609375 " clip-rule="nonzero"/></clipPath><clipPath id="67d104cb4a"><path d="M 535 533 L 546 533 L 546 557.609375 L 535 557.609375 Z M 535 533 " clip-rule="nonzero"/></clipPath><clipPath id="d2c9ff40b6"><path d="M 406 533 L 417 533 L 417 557.609375 L 406 557.609375 Z M 406 533 " clip-rule="nonzero"/></clipPath><clipPath id="2856e9baae"><path d="M 240.394531 672 L 359.535156 672 L 359.535156 815.28125 L 240.394531 815.28125 Z M 240.394531 672 " clip-rule="nonzero"/></clipPath><clipPath id="9b8226c934"><path d="M 240.394531 650.339844 L 359.535156 650.339844 L 359.535156 669 L 240.394531 669 Z M 240.394531 650.339844 " clip-rule="nonzero"/></clipPath></defs><g clip-path="url(#3922c4e9f2)"><path fill="#40b93c" d="M 146.417969 194.738281 L 140.324219 194.738281 L 140.324219 189.980469 L 146.417969 189.980469 Z M 146.417969 200.296875 L 140.324219 200.296875 L 140.324219 195.84375 L 146.417969 195.84375 Z M 139.21875 194.738281 L 133.359375 194.738281 L 133.359375 189.980469 L 139.21875 189.980469 Z M 139.21875 200.296875 L 133.359375 200.296875 L 133.359375 195.84375 L 139.21875 195.84375 Z M 132.253906 194.738281 L 126.398438 194.738281 L 126.398438 189.980469 L 132.253906 189.980469 Z M 132.253906 200.296875 L 126.398438 200.296875 L 126.398438 195.84375 L 132.253906 195.84375 Z M 125.292969 194.738281 L 119.160156 194.738281 L 119.160156 189.980469 L 125.292969 189.980469 Z M 125.292969 200.296875 L 119.160156 200.296875 L 119.160156 195.84375 L 125.292969 195.84375 Z M 132.808594 170.4375 L 60.019531 205.777344 L 60.019531 275.496094 L 79.101562 275.496094 L 79.101562 207.421875 L 186.515625 207.421875 L 186.515625 275.496094 L 205.597656 275.496094 L 205.597656 205.777344 L 132.808594 170.4375 " fill-opacity="1" fill-rule="nonzero"/></g><path fill="#40b93c" d="M 82.507812 224.441406 L 96.761719 224.441406 L 96.761719 210.1875 L 82.507812 210.1875 L 82.507812 224.441406 " fill-opacity="1" fill-rule="nonzero"/><path fill="#40b93c" d="M 99.777344 224.441406 L 114.03125 224.441406 L 114.03125 210.1875 L 99.777344 210.1875 L 99.777344 224.441406 " fill-opacity="1" fill-rule="nonzero"/><path fill="#40b93c" d="M 82.507812 241.460938 L 96.761719 241.460938 L 96.761719 227.207031 L 82.507812 227.207031 L 82.507812 241.460938 " fill-opacity="1" fill-rule="nonzero"/><path fill="#40b93c" d="M 99.777344 241.460938 L 114.03125 241.460938 L 114.03125 227.207031 L 99.777344 227.207031 L 99.777344 241.460938 " fill-opacity="1" fill-rule="nonzero"/><path fill="#40b93c" d="M 117.046875 241.460938 L 131.300781 241.460938 L 131.300781 227.207031 L 117.046875 227.207031 L 117.046875 241.460938 " fill-opacity="1" fill-rule="nonzero"/><path fill="#40b93c" d="M 82.507812 258.480469 L 96.761719 258.480469 L 96.761719 244.226562 L 82.507812 244.226562 L 82.507812 258.480469 " fill-opacity="1" fill-rule="nonzero"/><path fill="#40b93c" d="M 99.777344 258.480469 L 114.03125 258.480469 L 114.03125 244.226562 L 99.777344 244.226562 L 99.777344 258.480469 " fill-opacity="1" fill-rule="nonzero"/><path fill="#40b93c" d="M 117.046875 258.480469 L 131.300781 258.480469 L 131.300781 244.226562 L 117.046875 244.226562 L 117.046875 258.480469 " fill-opacity="1" fill-rule="nonzero"/><path fill="#40b93c" d="M 134.316406 258.480469 L 148.570312 258.480469 L 148.570312 244.226562 L 134.316406 244.226562 L 134.316406 258.480469 " fill-opacity="1" fill-rule="nonzero"/><g clip-path="url(#c8bf4fe4a1)"><path fill="#40b93c" d="M 82.507812 275.496094 L 96.761719 275.496094 L 96.761719 261.242188 L 82.507812 261.242188 L 82.507812 275.496094 " fill-opacity="1" fill-rule="nonzero"/></g><g clip-path="url(#31043610a4)"><path fill="#40b93c" d="M 99.777344 275.496094 L 114.03125 275.496094 L 114.03125 261.242188 L 99.777344 261.242188 L 99.777344 275.496094 " fill-opacity="1" fill-rule="nonzero"/></g><g clip-path="url(#95ad5dcfca)"><path fill="#40b93c" d="M 117.046875 275.496094 L 131.300781 275.496094 L 131.300781 261.242188 L 117.046875 261.242188 L 117.046875 275.496094 " fill-opacity="1" fill-rule="nonzero"/></g><g clip-path="url(#b73576dda0)"><path fill="#40b93c" d="M 134.316406 275.496094 L 148.570312 275.496094 L 148.570312 261.242188 L 134.316406 261.242188 L 134.316406 275.496094 " fill-opacity="1" fill-rule="nonzero"/></g><g clip-path="url(#282219880c)"><path fill="#40b93c" d="M 151.585938 275.496094 L 165.839844 275.496094 L 165.839844 261.242188 L 151.585938 261.242188 L 151.585938 275.496094 " fill-opacity="1" fill-rule="nonzero"/></g><g clip-path="url(#466d1f5c0e)"><path fill="#40b93c" d="M 168.855469 261.242188 L 168.855469 275.496094 L 183.109375 275.496094 L 183.109375 261.242188 L 168.855469 261.242188 " fill-opacity="1" fill-rule="nonzero"/></g><g clip-path="url(#85332192fd)"><path fill="#40b93c" d="M 528.355469 203.886719 L 424.121094 203.886719 C 423.953125 203.886719 423.816406 204.023438 423.816406 204.195312 L 423.816406 275.132812 C 423.816406 275.300781 423.953125 275.441406 424.121094 275.441406 L 528.355469 275.441406 C 528.527344 275.441406 528.664062 275.300781 528.664062 275.132812 L 528.664062 204.195312 C 528.664062 204.023438 528.527344 203.886719 528.355469 203.886719 Z M 547.417969 187.050781 C 547.585938 187.050781 547.722656 186.914062 547.722656 186.742188 L 547.722656 179.039062 C 547.722656 178.933594 547.671875 178.839844 547.582031 178.78125 L 476.40625 132.980469 C 476.300781 132.914062 476.175781 132.914062 476.074219 132.980469 L 404.894531 178.78125 C 404.804688 178.839844 404.753906 178.933594 404.753906 179.039062 L 404.753906 186.742188 C 404.753906 186.914062 404.894531 187.050781 405.0625 187.050781 C 452.511719 187.050781 499.964844 187.050781 547.417969 187.050781 Z M 439.285156 167.808594 L 513.191406 167.808594 C 513.359375 167.808594 513.5 167.945312 513.5 168.117188 L 513.5 175.90625 C 513.5 176.074219 513.359375 176.210938 513.191406 176.210938 L 439.285156 176.210938 C 439.117188 176.210938 438.980469 176.074219 438.980469 175.90625 L 438.980469 168.117188 C 438.980469 167.945312 439.117188 167.808594 439.285156 167.808594 Z M 421.667969 199.589844 C 420.480469 199.589844 419.519531 200.554688 419.519531 201.738281 L 419.519531 275.132812 C 419.519531 275.300781 419.382812 275.441406 419.214844 275.441406 L 411.980469 275.441406 C 411.808594 275.441406 411.671875 275.300781 411.671875 275.132812 L 411.671875 191.652344 C 411.671875 191.484375 411.808594 191.34375 411.980469 191.34375 L 540.5 191.34375 C 540.667969 191.34375 540.804688 191.484375 540.804688 191.652344 L 540.804688 275.132812 C 540.804688 275.300781 540.667969 275.441406 540.5 275.441406 L 533.265625 275.441406 C 533.097656 275.441406 532.957031 275.300781 532.957031 275.132812 L 532.957031 201.738281 C 532.957031 200.554688 531.996094 199.589844 530.8125 199.589844 Z M 509.332031 220.171875 C 511.660156 220.171875 513.5625 222.078125 513.5625 224.40625 L 513.5625 249.144531 C 513.5625 249.226562 513.589844 249.296875 513.644531 249.355469 C 514.597656 250.394531 515.179688 251.78125 515.179688 253.304688 C 515.179688 256.535156 512.5625 259.152344 509.332031 259.152344 C 506.101562 259.152344 503.484375 256.535156 503.484375 253.304688 C 503.484375 251.78125 504.066406 250.394531 505.019531 249.355469 C 505.074219 249.292969 505.101562 249.226562 505.101562 249.144531 L 505.101562 245 C 505.101562 244.832031 505.238281 244.695312 505.40625 244.695312 L 507.992188 244.695312 C 509.179688 244.695312 510.140625 243.734375 510.140625 242.546875 C 510.140625 241.359375 509.179688 240.398438 507.992188 240.398438 L 505.40625 240.398438 C 505.238281 240.398438 505.101562 240.261719 505.101562 240.09375 L 505.101562 239.050781 C 505.101562 238.878906 505.238281 238.742188 505.40625 238.742188 L 507.992188 238.742188 C 509.179688 238.742188 510.140625 237.78125 510.140625 236.59375 C 510.140625 235.410156 509.179688 234.445312 507.992188 234.445312 L 505.40625 234.445312 C 505.238281 234.445312 505.101562 234.308594 505.101562 234.140625 L 505.101562 233.097656 C 505.101562 232.929688 505.238281 232.789062 505.40625 232.789062 L 507.992188 232.789062 C 509.179688 232.789062 510.140625 231.828125 510.140625 230.644531 C 510.140625 229.457031 509.179688 228.496094 507.992188 228.496094 L 505.40625 228.496094 C 505.238281 228.496094 505.101562 228.355469 505.101562 228.1875 L 505.101562 224.40625 C 505.101562 222.078125 507.003906 220.171875 509.332031 220.171875 Z M 460.503906 214.308594 C 460.503906 213.125 461.464844 212.164062 462.652344 212.164062 C 463.835938 212.164062 464.796875 213.125 464.796875 214.308594 L 464.796875 216.359375 C 464.796875 216.621094 465.105469 216.761719 465.304688 216.59375 L 466.1875 215.84375 C 467.089844 215.078125 468.445312 215.191406 469.207031 216.09375 C 469.972656 217 469.859375 218.351562 468.957031 219.117188 L 464.90625 222.550781 C 464.835938 222.609375 464.796875 222.691406 464.796875 222.785156 L 464.796875 233.738281 C 464.796875 234.011719 465.128906 234.148438 465.320312 233.957031 L 473.066406 226.210938 C 473.132812 226.144531 473.160156 226.0625 473.152344 225.96875 L 472.71875 220.664062 C 472.625 219.484375 473.507812 218.449219 474.6875 218.359375 C 475.871094 218.265625 476.902344 219.148438 476.996094 220.328125 L 477.089844 221.472656 C 477.109375 221.734375 477.425781 221.847656 477.613281 221.664062 L 479.058594 220.21875 C 479.898438 219.378906 481.257812 219.378906 482.097656 220.21875 C 482.933594 221.054688 482.933594 222.414062 482.097656 223.253906 L 480.648438 224.699219 C 480.464844 224.886719 480.578125 225.203125 480.839844 225.222656 L 481.984375 225.316406 C 483.164062 225.410156 484.046875 226.441406 483.957031 227.625 C 483.863281 228.804688 482.828125 229.6875 481.648438 229.597656 L 476.34375 229.160156 C 476.25 229.152344 476.167969 229.183594 476.101562 229.25 L 468.359375 236.992188 C 468.164062 237.183594 468.300781 237.515625 468.574219 237.515625 L 479.53125 237.515625 C 479.621094 237.515625 479.703125 237.476562 479.761719 237.40625 L 483.199219 233.355469 C 483.960938 232.453125 485.3125 232.339844 486.21875 233.105469 C 487.121094 233.871094 487.234375 235.222656 486.46875 236.125 L 485.71875 237.011719 C 485.550781 237.210938 485.691406 237.515625 485.953125 237.515625 L 488.003906 237.515625 C 489.1875 237.515625 490.152344 238.476562 490.152344 239.664062 C 490.152344 240.847656 489.1875 241.8125 488.003906 241.8125 L 485.953125 241.8125 C 485.691406 241.8125 485.550781 242.117188 485.71875 242.316406 L 486.46875 243.199219 C 487.234375 244.105469 487.121094 245.457031 486.21875 246.21875 C 485.3125 246.984375 483.960938 246.871094 483.199219 245.96875 L 479.761719 241.917969 C 479.703125 241.847656 479.621094 241.8125 479.53125 241.8125 L 468.574219 241.8125 C 468.300781 241.8125 468.164062 242.140625 468.359375 242.335938 L 476.101562 250.078125 C 476.167969 250.144531 476.25 250.175781 476.34375 250.167969 L 481.648438 249.730469 C 482.828125 249.636719 483.863281 250.519531 483.957031 251.703125 C 484.046875 252.882812 483.164062 253.917969 481.984375 254.007812 L 480.839844 254.101562 C 480.582031 254.125 480.464844 254.441406 480.648438 254.625 L 482.097656 256.070312 C 482.933594 256.910156 482.933594 258.269531 482.097656 259.109375 C 481.257812 259.945312 479.898438 259.945312 479.058594 259.109375 L 477.613281 257.660156 C 477.429688 257.476562 477.113281 257.59375 477.089844 257.851562 L 476.996094 258.996094 C 476.902344 260.179688 475.871094 261.0625 474.691406 260.96875 C 473.507812 260.875 472.625 259.84375 472.71875 258.660156 L 473.15625 253.355469 C 473.164062 253.261719 473.132812 253.179688 473.066406 253.113281 L 465.324219 245.371094 C 465.128906 245.175781 464.800781 245.3125 464.800781 245.585938 L 464.800781 256.542969 C 464.800781 256.636719 464.835938 256.714844 464.90625 256.777344 L 468.957031 260.210938 C 469.859375 260.976562 469.972656 262.328125 469.207031 263.230469 C 468.445312 264.132812 467.09375 264.246094 466.1875 263.484375 L 465.304688 262.734375 C 465.105469 262.5625 464.796875 262.703125 464.796875 262.964844 L 464.796875 265.015625 C 464.796875 266.203125 463.835938 267.164062 462.652344 267.164062 C 461.464844 267.164062 460.503906 266.203125 460.503906 265.015625 L 460.503906 262.964844 C 460.503906 262.703125 460.199219 262.5625 460 262.734375 L 459.113281 263.484375 C 458.210938 264.246094 456.859375 264.132812 456.09375 263.230469 C 455.328125 262.328125 455.441406 260.976562 456.34375 260.210938 L 460.394531 256.777344 C 460.464844 256.714844 460.503906 256.636719 460.503906 256.542969 L 460.503906 245.585938 C 460.503906 245.3125 460.171875 245.175781 459.980469 245.371094 L 452.238281 253.113281 C 452.171875 253.179688 452.140625 253.261719 452.148438 253.355469 L 452.585938 258.660156 C 452.675781 259.84375 451.792969 260.875 450.613281 260.96875 C 449.429688 261.0625 448.398438 260.179688 448.304688 258.996094 L 448.210938 257.851562 C 448.191406 257.59375 447.875 257.476562 447.6875 257.660156 L 446.242188 259.109375 C 445.402344 259.945312 444.042969 259.945312 443.207031 259.109375 C 442.367188 258.269531 442.367188 256.910156 443.207031 256.070312 L 444.652344 254.625 C 444.835938 254.441406 444.722656 254.125 444.460938 254.101562 L 443.316406 254.007812 C 442.136719 253.917969 441.253906 252.882812 441.34375 251.703125 C 441.4375 250.519531 442.472656 249.636719 443.652344 249.730469 L 448.957031 250.167969 C 449.050781 250.175781 449.132812 250.144531 449.199219 250.078125 L 456.941406 242.335938 C 457.136719 242.140625 457 241.8125 456.726562 241.8125 L 445.769531 241.8125 C 445.679688 241.8125 445.597656 241.847656 445.539062 241.917969 L 442.101562 245.96875 C 441.339844 246.871094 439.988281 246.984375 439.082031 246.21875 C 438.179688 245.457031 438.066406 244.105469 438.832031 243.199219 L 439.582031 242.316406 C 439.75 242.117188 439.609375 241.8125 439.347656 241.8125 L 437.296875 241.8125 C 436.113281 241.8125 435.152344 240.847656 435.152344 239.664062 C 435.152344 238.476562 436.113281 237.515625 437.296875 237.515625 L 439.347656 237.515625 C 439.609375 237.515625 439.75 237.210938 439.582031 237.011719 L 438.832031 236.125 C 438.066406 235.222656 438.179688 233.871094 439.082031 233.105469 C 439.988281 232.339844 441.339844 232.453125 442.101562 233.359375 L 445.539062 237.40625 C 445.597656 237.480469 445.679688 237.515625 445.769531 237.515625 L 456.726562 237.515625 C 457 237.515625 457.136719 237.1875 456.941406 236.992188 L 449.199219 229.25 C 449.132812 229.183594 449.050781 229.152344 448.957031 229.160156 L 443.652344 229.597656 C 442.472656 229.6875 441.4375 228.804688 441.34375 227.625 C 441.253906 226.441406 442.136719 225.410156 443.316406 225.316406 L 444.460938 225.222656 C 444.722656 225.203125 444.835938 224.886719 444.652344 224.703125 L 443.203125 223.253906 C 442.367188 222.414062 442.367188 221.054688 443.203125 220.21875 C 444.042969 219.378906 445.402344 219.378906 446.242188 220.21875 L 447.6875 221.664062 C 447.875 221.847656 448.191406 221.734375 448.210938 221.472656 L 448.304688 220.328125 C 448.398438 219.148438 449.429688 218.265625 450.613281 218.359375 C 451.792969 218.449219 452.675781 219.484375 452.582031 220.664062 L 452.148438 225.96875 C 452.140625 226.0625 452.167969 226.144531 452.234375 226.210938 L 459.980469 233.957031 C 460.171875 234.148438 460.503906 234.011719 460.503906 233.738281 L 460.503906 222.785156 C 460.503906 222.691406 460.464844 222.609375 460.394531 222.550781 L 456.34375 219.117188 C 455.441406 218.351562 455.328125 217 456.09375 216.09375 C 456.859375 215.191406 458.210938 215.078125 459.113281 215.84375 L 459.996094 216.59375 C 460.199219 216.761719 460.503906 216.621094 460.503906 216.359375 Z M 517.90625 247.882812 C 518.925781 249.492188 519.476562 251.367188 519.476562 253.304688 C 519.476562 258.90625 514.933594 263.449219 509.332031 263.449219 C 503.730469 263.449219 499.1875 258.90625 499.1875 253.304688 C 499.1875 251.367188 499.738281 249.492188 500.757812 247.882812 C 500.789062 247.832031 500.804688 247.78125 500.804688 247.71875 L 500.804688 224.40625 C 500.804688 219.707031 504.632812 215.878906 509.332031 215.878906 C 514.03125 215.878906 517.859375 219.707031 517.859375 224.40625 L 517.859375 247.71875 C 517.859375 247.78125 517.875 247.832031 517.90625 247.882812 Z M 517.90625 247.882812 " fill-opacity="1" fill-rule="evenodd"/></g><path fill="#40b93c" d="M 152.246094 434.257812 L 123.046875 424.859375 L 119.753906 423.800781 C 118.753906 423.480469 117.660156 424.035156 117.332031 425.046875 C 117.003906 426.054688 117.5625 427.140625 118.570312 427.46875 L 120.027344 427.9375 L 84.808594 537.261719 C 82.183594 545.410156 86.679688 554.1875 94.835938 556.8125 C 96.40625 557.324219 98.007812 557.558594 99.589844 557.558594 C 106.148438 557.558594 112.269531 553.359375 114.382812 546.78125 L 137.894531 473.820312 C 137.894531 473.8125 137.894531 473.8125 137.894531 473.8125 L 149.601562 437.460938 L 151.0625 437.929688 C 151.257812 437.996094 151.460938 438.019531 151.648438 438.019531 C 152.460938 438.019531 153.21875 437.5 153.484375 436.679688 C 153.816406 435.671875 153.257812 434.589844 152.246094 434.257812 Z M 134.824219 470.796875 L 112.578125 463.636719 L 123.699219 429.109375 L 145.941406 436.277344 Z M 134.824219 470.796875 " fill-opacity="1" fill-rule="nonzero"/><path fill="#40b93c" d="M 149.183594 414.03125 C 149.183594 414.464844 149.140625 414.894531 149.054688 415.316406 C 148.972656 415.742188 148.84375 416.152344 148.679688 416.554688 C 148.515625 416.953125 148.3125 417.332031 148.070312 417.695312 C 147.832031 418.054688 147.558594 418.386719 147.25 418.691406 C 146.945312 419 146.613281 419.273438 146.253906 419.511719 C 145.890625 419.753906 145.511719 419.957031 145.113281 420.121094 C 144.710938 420.289062 144.300781 420.414062 143.875 420.496094 C 143.453125 420.582031 143.023438 420.625 142.589844 420.625 C 142.15625 420.625 141.726562 420.582031 141.304688 420.496094 C 140.878906 420.414062 140.46875 420.289062 140.066406 420.121094 C 139.667969 419.957031 139.289062 419.753906 138.925781 419.511719 C 138.566406 419.273438 138.234375 419 137.929688 418.691406 C 137.621094 418.386719 137.347656 418.054688 137.109375 417.695312 C 136.867188 417.332031 136.664062 416.953125 136.5 416.554688 C 136.332031 416.152344 136.207031 415.742188 136.125 415.316406 C 136.039062 414.894531 135.996094 414.464844 135.996094 414.03125 C 135.996094 413.597656 136.039062 413.167969 136.125 412.746094 C 136.207031 412.320312 136.332031 411.910156 136.5 411.507812 C 136.664062 411.109375 136.867188 410.730469 137.109375 410.367188 C 137.347656 410.007812 137.621094 409.675781 137.929688 409.371094 C 138.234375 409.0625 138.566406 408.789062 138.925781 408.550781 C 139.289062 408.308594 139.667969 408.105469 140.066406 407.941406 C 140.46875 407.773438 140.878906 407.648438 141.304688 407.566406 C 141.726562 407.480469 142.15625 407.4375 142.589844 407.4375 C 143.023438 407.4375 143.453125 407.480469 143.875 407.566406 C 144.300781 407.648438 144.710938 407.773438 145.113281 407.941406 C 145.511719 408.105469 145.890625 408.308594 146.253906 408.550781 C 146.613281 408.789062 146.945312 409.0625 147.25 409.371094 C 147.558594 409.675781 147.832031 410.007812 148.070312 410.367188 C 148.3125 410.730469 148.515625 411.109375 148.679688 411.507812 C 148.84375 411.910156 148.972656 412.320312 149.054688 412.746094 C 149.140625 413.167969 149.183594 413.597656 149.183594 414.03125 Z M 149.183594 414.03125 " fill-opacity="1" fill-rule="nonzero"/><g clip-path="url(#3b40e250dc)"><path fill="#40b93c" d="M 133.226562 385.363281 C 128.109375 385.363281 123.957031 389.523438 123.957031 394.628906 C 123.957031 399.738281 128.109375 403.898438 133.226562 403.898438 C 138.335938 403.898438 142.496094 399.738281 142.496094 394.628906 C 142.496094 389.523438 138.335938 385.363281 133.226562 385.363281 Z M 133.226562 385.363281 " fill-opacity="1" fill-rule="nonzero"/></g><g clip-path="url(#b99265d8ca)"><path fill="#40b93c" d="M 396.035156 433.367188 C 396.035156 430.550781 398.316406 428.269531 401.132812 428.269531 L 550.675781 428.269531 C 553.492188 428.269531 555.773438 430.550781 555.773438 433.367188 L 555.773438 467.355469 C 555.773438 470.171875 553.492188 472.453125 550.675781 472.453125 L 401.132812 472.453125 C 398.316406 472.453125 396.035156 470.171875 396.035156 467.355469 Z M 406.230469 438.464844 L 406.230469 462.257812 L 545.578125 462.257812 L 545.578125 438.464844 Z M 406.230469 438.464844 " fill-opacity="1" fill-rule="evenodd"/></g><path fill="#40b93c" d="M 443.617188 450.359375 C 443.617188 447.546875 445.898438 445.261719 448.714844 445.261719 L 499.695312 445.261719 C 502.511719 445.261719 504.792969 447.546875 504.792969 450.359375 C 504.792969 453.175781 502.511719 455.457031 499.695312 455.457031 L 448.714844 455.457031 C 445.898438 455.457031 443.617188 453.175781 443.617188 450.359375 Z M 443.617188 450.359375 " fill-opacity="1" fill-rule="evenodd"/><path fill="#40b93c" d="M 396.035156 467.355469 C 396.035156 464.539062 398.316406 462.257812 401.132812 462.257812 L 550.675781 462.257812 C 553.492188 462.257812 555.773438 464.539062 555.773438 467.355469 L 555.773438 538.726562 C 555.773438 541.542969 553.492188 543.828125 550.675781 543.828125 L 401.132812 543.828125 C 398.316406 543.828125 396.035156 541.542969 396.035156 538.726562 Z M 520.085938 516.636719 C 517.273438 516.636719 514.988281 518.917969 514.988281 521.734375 C 514.988281 524.550781 517.273438 526.832031 520.085938 526.832031 L 533.683594 526.832031 C 536.5 526.832031 538.78125 524.550781 538.78125 521.734375 C 538.78125 518.917969 536.5 516.636719 533.683594 516.636719 Z M 520.085938 516.636719 " fill-opacity="1" fill-rule="evenodd"/><g clip-path="url(#67d104cb4a)"><path fill="#40b93c" d="M 540.480469 533.628906 C 543.296875 533.628906 545.578125 535.914062 545.578125 538.726562 L 545.578125 552.324219 C 545.578125 555.140625 543.296875 557.421875 540.480469 557.421875 C 537.664062 557.421875 535.382812 555.140625 535.382812 552.324219 L 535.382812 538.726562 C 535.382812 535.914062 537.664062 533.628906 540.480469 533.628906 Z M 540.480469 533.628906 " fill-opacity="1" fill-rule="evenodd"/></g><g clip-path="url(#d2c9ff40b6)"><path fill="#40b93c" d="M 411.328125 533.628906 C 414.144531 533.628906 416.425781 535.914062 416.425781 538.726562 L 416.425781 552.324219 C 416.425781 555.140625 414.144531 557.421875 411.328125 557.421875 C 408.511719 557.421875 406.230469 555.140625 406.230469 552.324219 L 406.230469 538.726562 C 406.230469 535.914062 408.511719 533.628906 411.328125 533.628906 Z M 411.328125 533.628906 " fill-opacity="1" fill-rule="evenodd"/></g><g clip-path="url(#2856e9baae)"><path fill="#40b93c" d="M 277.152344 771.628906 L 322.765625 771.628906 C 324.242188 771.660156 325.429688 772.890625 325.398438 774.367188 C 325.371094 775.804688 324.199219 776.976562 322.765625 776.988281 L 277.152344 776.988281 C 275.671875 776.976562 274.5 775.746094 274.53125 774.265625 C 274.558594 772.816406 275.714844 771.660156 277.152344 771.628906 Z M 309.863281 723.996094 C 310.054688 723.980469 310.230469 724.070312 310.316406 724.246094 C 310.976562 725.503906 311.589844 726.792969 312.191406 728.097656 C 313.570312 731.097656 313.042969 734.613281 310.84375 737.085938 C 308.3125 739.929688 305.414062 742.445312 302.25 744.554688 C 302.148438 744.628906 302.042969 744.671875 301.941406 744.730469 C 300.566406 740.308594 302.058594 735.492188 305.675781 732.605469 C 306.144531 732.226562 306.523438 731.773438 306.816406 731.257812 C 308.003906 729.078125 308.910156 726.75 309.484375 724.332031 C 309.527344 724.15625 309.660156 724.023438 309.847656 723.996094 Z M 298.015625 706.777344 C 298.148438 706.777344 298.28125 706.835938 298.367188 706.9375 C 301.898438 710.917969 305.0625 715.226562 307.800781 719.808594 C 308.371094 720.746094 308.558594 721.871094 308.355469 722.957031 C 307.859375 725.535156 306.980469 728.023438 305.734375 730.335938 C 305.457031 730.847656 305.089844 731.304688 304.636719 731.683594 C 300.667969 734.949219 299.085938 740.292969 300.625 745.183594 C 299.585938 745.375 298.515625 745.15625 297.636719 744.585938 C 294.3125 742.402344 291.296875 739.8125 288.644531 736.851562 C 286.242188 734.160156 285.980469 730.175781 287.988281 727.171875 C 290.242188 723.789062 292.773438 720.570312 295.527344 717.554688 C 298.03125 714.816406 298.835938 710.90625 297.605469 707.390625 C 297.519531 707.15625 297.636719 706.894531 297.871094 706.804688 C 297.898438 706.789062 297.929688 706.789062 297.957031 706.777344 Z M 240.394531 672.1875 L 240.394531 792.203125 C 240.394531 798.574219 245.566406 803.742188 251.933594 803.742188 L 274.601562 803.742188 L 274.601562 815.28125 L 282.304688 815.28125 L 282.304688 803.742188 L 317.625 803.742188 L 317.625 815.28125 L 325.3125 815.28125 L 325.3125 803.742188 L 347.996094 803.742188 C 354.363281 803.742188 359.535156 798.574219 359.535156 792.203125 L 359.535156 672.1875 L 240.394531 672.1875 " fill-opacity="1" fill-rule="nonzero"/></g><g clip-path="url(#9b8226c934)"><path fill="#40b93c" d="M 347.996094 650.339844 L 251.933594 650.339844 C 245.566406 650.339844 240.394531 655.507812 240.394531 661.878906 L 240.394531 668.441406 L 359.535156 668.441406 L 359.535156 661.878906 C 359.535156 655.507812 354.363281 650.339844 347.996094 650.339844 " fill-opacity="1" fill-rule="nonzero"/></g><g fill="#000000" fill-opacity="1"><g transform="translate(52.316405, 333.221165)"><g><path d="M 7.378906 0 L 9.839844 0 L 16.140625 -17.011719 L 19.621094 -7.648438 L 22.46875 0 L 24.929688 0 L 31.769531 -21 L 29.011719 -21 L 23.609375 -4.199219 L 17.398438 -21 L 14.910156 -21 L 8.699219 -4.230469 L 6.238281 -11.941406 L 3.328125 -21 L 0.570312 -21 Z M 7.378906 0 "/></g></g></g><g fill="#000000" fill-opacity="1"><g transform="translate(84.656377, 333.221165)"><g><path d="M 7.890625 0.238281 C 10.410156 0.238281 12.390625 -0.570312 13.800781 -2.160156 L 14.070312 0 L 16.140625 0 L 16.140625 -9.898438 C 16.140625 -13.5 13.410156 -15.960938 9.328125 -15.960938 C 5.941406 -15.960938 3.390625 -14.128906 2.699219 -11.128906 L 5.25 -11.128906 C 5.761719 -12.660156 7.351562 -13.621094 9.359375 -13.621094 C 12 -13.621094 13.621094 -12.148438 13.621094 -9.71875 L 13.621094 -9.148438 L 7.261719 -9.148438 C 4.019531 -9.148438 1.890625 -7.320312 1.890625 -4.5 C 1.890625 -1.558594 4.140625 0.238281 7.890625 0.238281 Z M 4.410156 -4.53125 C 4.410156 -6 5.609375 -6.929688 7.351562 -6.929688 L 13.648438 -6.929688 C 13.558594 -4.050781 11.21875 -2.011719 7.980469 -2.011719 C 5.789062 -2.011719 4.410156 -3 4.410156 -4.53125 Z M 4.410156 -4.53125 "/></g></g></g><g fill="#000000" fill-opacity="1"><g transform="translate(103.256356, 333.221165)"><g><path d="M 2.789062 0 L 5.308594 0 L 5.308594 -7.230469 C 5.308594 -11.671875 7.53125 -13.230469 10.351562 -13.230469 L 11.878906 -13.230469 L 11.878906 -15.570312 L 10.46875 -15.570312 C 7.828125 -15.570312 6.269531 -14.730469 5.160156 -12.871094 L 4.859375 -15.570312 L 2.789062 -15.570312 Z M 2.789062 0 "/></g></g></g><g fill="#000000" fill-opacity="1"><g transform="translate(116.336346, 333.221165)"><g><path d="M 9.539062 0.390625 C 13.050781 0.390625 15.929688 -1.5 17.191406 -4.53125 L 14.339844 -4.53125 C 13.378906 -2.878906 11.609375 -1.980469 9.570312 -1.980469 C 6.601562 -1.980469 4.5 -3.839844 4.109375 -6.78125 L 17.578125 -6.78125 C 17.761719 -12.210938 14.550781 -15.960938 9.570312 -15.960938 C 4.859375 -15.960938 1.558594 -12.601562 1.558594 -7.800781 C 1.558594 -2.96875 4.828125 0.390625 9.539062 0.390625 Z M 4.140625 -9 C 4.589844 -11.761719 6.691406 -13.589844 9.570312 -13.589844 C 12.421875 -13.589844 14.519531 -11.851562 15.058594 -9 Z M 4.140625 -9 "/></g></g></g><g fill="#000000" fill-opacity="1"><g transform="translate(135.416324, 333.221165)"><g><path d="M 2.789062 0 L 5.308594 0 L 5.308594 -7.949219 C 5.308594 -11.371094 7.378906 -13.558594 10.320312 -13.558594 C 13.019531 -13.558594 14.699219 -11.640625 14.699219 -8.519531 L 14.699219 0 L 17.21875 0 L 17.21875 -8.761719 C 17.21875 -13.199219 14.761719 -15.960938 10.648438 -15.960938 C 8.640625 -15.960938 6.660156 -15.210938 5.308594 -13.53125 L 5.308594 -22.199219 L 2.789062 -22.199219 Z M 2.789062 0 "/></g></g></g><g fill="#000000" fill-opacity="1"><g transform="translate(155.126299, 333.221165)"><g><path d="M 9.808594 0.390625 C 14.640625 0.390625 18.058594 -3.03125 18.058594 -7.800781 C 18.058594 -12.570312 14.640625 -15.960938 9.808594 -15.960938 C 4.980469 -15.960938 1.558594 -12.570312 1.558594 -7.800781 C 1.558594 -3.03125 4.980469 0.390625 9.808594 0.390625 Z M 4.078125 -7.800781 C 4.078125 -11.191406 6.449219 -13.558594 9.808594 -13.558594 C 13.171875 -13.558594 15.539062 -11.191406 15.539062 -7.800781 C 15.539062 -4.378906 13.171875 -2.039062 9.808594 -2.039062 C 6.449219 -2.039062 4.078125 -4.378906 4.078125 -7.800781 Z M 4.078125 -7.800781 "/></g></g></g><g fill="#000000" fill-opacity="1"><g transform="translate(174.746277, 333.221165)"><g><path d="M 9 0.390625 C 11.070312 0.390625 13.078125 -0.449219 14.429688 -2.28125 L 14.699219 0 L 16.769531 0 L 16.769531 -15.570312 L 14.25 -15.570312 L 14.25 -7.710938 C 14.25 -4.320312 12.238281 -2.039062 9.328125 -2.039062 C 6.660156 -2.039062 5.011719 -4.019531 5.011719 -7.140625 L 5.011719 -15.570312 L 2.488281 -15.570312 L 2.488281 -6.898438 C 2.488281 -2.460938 4.921875 0.390625 9 0.390625 Z M 9 0.390625 "/></g></g></g><g fill="#000000" fill-opacity="1"><g transform="translate(194.306255, 333.221165)"><g><path d="M 8.429688 0.390625 C 12.269531 0.390625 14.761719 -1.378906 14.761719 -4.078125 C 14.761719 -6.511719 12.71875 -8.160156 8.789062 -8.941406 C 5.550781 -9.570312 4.441406 -10.199219 4.441406 -11.519531 C 4.441406 -12.898438 5.761719 -13.738281 8.011719 -13.738281 C 10.378906 -13.738281 11.789062 -12.808594 11.96875 -11.101562 L 14.460938 -11.101562 C 14.25 -14.160156 11.820312 -15.960938 7.980469 -15.960938 C 4.230469 -15.960938 1.949219 -14.308594 1.949219 -11.519531 C 1.949219 -9.058594 3.839844 -7.558594 7.859375 -6.898438 C 10.890625 -6.390625 12.269531 -5.550781 12.269531 -4.140625 C 12.269531 -2.730469 10.828125 -1.859375 8.460938 -1.859375 C 5.789062 -1.859375 4.199219 -3 4.109375 -4.890625 L 1.621094 -4.890625 C 1.679688 -1.710938 4.351562 0.390625 8.429688 0.390625 Z M 8.429688 0.390625 "/></g></g></g><g fill="#000000" fill-opacity="1"><g transform="translate(210.686239, 333.221165)"><g><path d="M 2.789062 0 L 5.308594 0 L 5.308594 -15.570312 L 2.789062 -15.570312 Z M 2.011719 -20.101562 C 2.011719 -18.988281 2.820312 -18.148438 4.050781 -18.148438 C 5.28125 -18.148438 6.058594 -18.988281 6.058594 -20.101562 C 6.058594 -21.238281 5.28125 -22.078125 4.050781 -22.078125 C 2.820312 -22.078125 2.011719 -21.238281 2.011719 -20.101562 Z M 2.011719 -20.101562 "/></g></g></g><g fill="#000000" fill-opacity="1"><g transform="translate(218.78623, 333.221165)"><g><path d="M 2.789062 0 L 5.308594 0 L 5.308594 -7.859375 C 5.308594 -11.28125 7.378906 -13.558594 10.289062 -13.558594 C 13.019531 -13.558594 14.699219 -11.578125 14.699219 -8.429688 L 14.699219 0 L 17.21875 0 L 17.21875 -8.671875 C 17.21875 -13.109375 14.761719 -15.960938 10.621094 -15.960938 C 8.519531 -15.960938 6.480469 -15.148438 5.128906 -13.289062 L 4.859375 -15.570312 L 2.789062 -15.570312 Z M 2.789062 0 "/></g></g></g><g fill="#000000" fill-opacity="1"><g transform="translate(238.496205, 333.221165)"><g><path d="M 9.75 6.390625 C 14.398438 6.390625 17.429688 3.511719 17.429688 -0.898438 L 17.429688 -15.570312 L 15.359375 -15.570312 L 15.089844 -13.46875 C 13.710938 -15.03125 11.671875 -15.960938 9.328125 -15.960938 C 4.890625 -15.960938 1.558594 -12.601562 1.558594 -8.070312 C 1.558594 -3.511719 4.890625 -0.148438 9.328125 -0.148438 C 11.578125 -0.148438 13.53125 -1.019531 14.910156 -2.460938 L 14.910156 -0.988281 C 14.910156 2.21875 13.019531 4.050781 9.75 4.050781 C 7.199219 4.050781 5.429688 2.878906 4.949219 0.988281 L 2.398438 0.988281 C 2.96875 4.320312 5.789062 6.390625 9.75 6.390625 Z M 4.078125 -8.070312 C 4.078125 -11.25 6.390625 -13.53125 9.601562 -13.53125 C 12.839844 -13.53125 15.121094 -11.25 15.121094 -8.070312 C 15.121094 -4.859375 12.839844 -2.609375 9.601562 -2.609375 C 6.390625 -2.609375 4.078125 -4.859375 4.078125 -8.070312 Z M 4.078125 -8.070312 "/></g></g></g><g fill="#000000" fill-opacity="1"><g transform="translate(373.674564, 333.221165)"><g><path d="M 12.359375 0.390625 C 17.460938 0.390625 21.601562 -2.699219 22.859375 -7.378906 L 20.070312 -7.378906 C 18.988281 -4.230469 16.019531 -2.25 12.449219 -2.25 C 7.769531 -2.25 4.441406 -5.640625 4.441406 -10.5 C 4.441406 -15.359375 7.769531 -18.75 12.449219 -18.75 C 15.929688 -18.75 18.78125 -16.890625 19.859375 -13.859375 L 22.679688 -13.859375 C 21.300781 -18.480469 17.308594 -21.390625 12.359375 -21.390625 C 6.179688 -21.390625 1.738281 -16.828125 1.738281 -10.5 C 1.738281 -4.171875 6.179688 0.390625 12.359375 0.390625 Z M 12.359375 0.390625 "/></g></g></g><g fill="#000000" fill-opacity="1"><g transform="translate(398.15454, 333.221165)"><g><path d="M 9.808594 0.390625 C 14.640625 0.390625 18.058594 -3.03125 18.058594 -7.800781 C 18.058594 -12.570312 14.640625 -15.960938 9.808594 -15.960938 C 4.980469 -15.960938 1.558594 -12.570312 1.558594 -7.800781 C 1.558594 -3.03125 4.980469 0.390625 9.808594 0.390625 Z M 4.078125 -7.800781 C 4.078125 -11.191406 6.449219 -13.558594 9.808594 -13.558594 C 13.171875 -13.558594 15.539062 -11.191406 15.539062 -7.800781 C 15.539062 -4.378906 13.171875 -2.039062 9.808594 -2.039062 C 6.449219 -2.039062 4.078125 -4.378906 4.078125 -7.800781 Z M 4.078125 -7.800781 "/></g></g></g><g fill="#000000" fill-opacity="1"><g transform="translate(417.774519, 333.221165)"><g><path d="M 2.789062 0 L 5.308594 0 L 5.308594 -22.199219 L 2.789062 -22.199219 Z M 2.789062 0 "/></g></g></g><g fill="#000000" fill-opacity="1"><g transform="translate(425.874509, 333.221165)"><g><path d="M 9.511719 0.390625 C 12.03125 0.390625 14.191406 -0.660156 15.601562 -2.398438 L 15.898438 0 L 17.96875 0 L 17.96875 -22.199219 L 15.449219 -22.199219 L 15.449219 -13.378906 C 14.039062 -15 11.941406 -15.960938 9.511719 -15.960938 C 4.890625 -15.960938 1.558594 -12.511719 1.558594 -7.800781 C 1.558594 -3.058594 4.890625 0.390625 9.511719 0.390625 Z M 4.078125 -7.800781 C 4.078125 -11.160156 6.449219 -13.558594 9.808594 -13.558594 C 13.199219 -13.558594 15.539062 -11.160156 15.539062 -7.800781 C 15.539062 -4.410156 13.199219 -2.039062 9.808594 -2.039062 C 6.449219 -2.039062 4.078125 -4.410156 4.078125 -7.800781 Z M 4.078125 -7.800781 "/></g></g></g><g fill="#000000" fill-opacity="1"><g transform="translate(446.634491, 333.221165)"><g/></g></g><g fill="#000000" fill-opacity="1"><g transform="translate(454.074489, 333.221165)"><g><path d="M 10.050781 0.390625 C 14.640625 0.390625 17.609375 -1.859375 17.609375 -5.519531 C 17.609375 -8.609375 15.539062 -10.46875 10.171875 -11.789062 C 6.089844 -12.78125 4.738281 -13.859375 4.738281 -15.601562 C 4.738281 -17.609375 6.539062 -18.871094 9.539062 -18.871094 C 12.628906 -18.871094 14.550781 -17.308594 14.609375 -14.789062 L 17.21875 -14.789062 C 17.191406 -18.871094 14.25 -21.390625 9.539062 -21.390625 C 4.949219 -21.390625 2.039062 -19.140625 2.039062 -15.601562 C 2.039062 -12.359375 4.351562 -10.558594 9.511719 -9.328125 C 13.289062 -8.429688 14.878906 -7.378906 14.878906 -5.429688 C 14.878906 -3.359375 13.019531 -2.128906 10.050781 -2.128906 C 6.78125 -2.128906 4.5 -3.75 4.441406 -6.449219 L 1.800781 -6.449219 C 1.828125 -2.339844 5.039062 0.390625 10.050781 0.390625 Z M 10.050781 0.390625 "/></g></g></g><g fill="#000000" fill-opacity="1"><g transform="translate(473.484468, 333.221165)"><g><path d="M 9.511719 0 L 11.851562 0 L 11.851562 -2.429688 L 9.628906 -2.429688 C 7.558594 -2.429688 6.601562 -3.480469 6.601562 -5.730469 L 6.601562 -13.261719 L 11.640625 -13.261719 L 11.640625 -15.570312 L 6.601562 -15.570312 L 6.601562 -19.441406 L 4.648438 -19.441406 L 4.410156 -17.339844 C 4.230469 -15.929688 3.808594 -15.570312 2.371094 -15.570312 L 0.808594 -15.570312 L 0.808594 -13.261719 L 4.078125 -13.261719 L 4.078125 -5.609375 C 4.078125 -2.039062 6.058594 0 9.511719 0 Z M 9.511719 0 "/></g></g></g><g fill="#000000" fill-opacity="1"><g transform="translate(486.804452, 333.221165)"><g><path d="M 9.808594 0.390625 C 14.640625 0.390625 18.058594 -3.03125 18.058594 -7.800781 C 18.058594 -12.570312 14.640625 -15.960938 9.808594 -15.960938 C 4.980469 -15.960938 1.558594 -12.570312 1.558594 -7.800781 C 1.558594 -3.03125 4.980469 0.390625 9.808594 0.390625 Z M 4.078125 -7.800781 C 4.078125 -11.191406 6.449219 -13.558594 9.808594 -13.558594 C 13.171875 -13.558594 15.539062 -11.191406 15.539062 -7.800781 C 15.539062 -4.378906 13.171875 -2.039062 9.808594 -2.039062 C 6.449219 -2.039062 4.078125 -4.378906 4.078125 -7.800781 Z M 4.078125 -7.800781 "/></g></g></g><g fill="#000000" fill-opacity="1"><g transform="translate(506.424431, 333.221165)"><g><path d="M 2.789062 0 L 5.308594 0 L 5.308594 -7.230469 C 5.308594 -11.671875 7.53125 -13.230469 10.351562 -13.230469 L 11.878906 -13.230469 L 11.878906 -15.570312 L 10.46875 -15.570312 C 7.828125 -15.570312 6.269531 -14.730469 5.160156 -12.871094 L 4.859375 -15.570312 L 2.789062 -15.570312 Z M 2.789062 0 "/></g></g></g><g fill="#000000" fill-opacity="1"><g transform="translate(519.50442, 333.221165)"><g><path d="M 7.890625 0.238281 C 10.410156 0.238281 12.390625 -0.570312 13.800781 -2.160156 L 14.070312 0 L 16.140625 0 L 16.140625 -9.898438 C 16.140625 -13.5 13.410156 -15.960938 9.328125 -15.960938 C 5.941406 -15.960938 3.390625 -14.128906 2.699219 -11.128906 L 5.25 -11.128906 C 5.761719 -12.660156 7.351562 -13.621094 9.359375 -13.621094 C 12 -13.621094 13.621094 -12.148438 13.621094 -9.71875 L 13.621094 -9.148438 L 7.261719 -9.148438 C 4.019531 -9.148438 1.890625 -7.320312 1.890625 -4.5 C 1.890625 -1.558594 4.140625 0.238281 7.890625 0.238281 Z M 4.410156 -4.53125 C 4.410156 -6 5.609375 -6.929688 7.351562 -6.929688 L 13.648438 -6.929688 C 13.558594 -4.050781 11.21875 -2.011719 7.980469 -2.011719 C 5.789062 -2.011719 4.410156 -3 4.410156 -4.53125 Z M 4.410156 -4.53125 "/></g></g></g><g fill="#000000" fill-opacity="1"><g transform="translate(538.104399, 333.221165)"><g><path d="M 9.75 6.390625 C 14.398438 6.390625 17.429688 3.511719 17.429688 -0.898438 L 17.429688 -15.570312 L 15.359375 -15.570312 L 15.089844 -13.46875 C 13.710938 -15.03125 11.671875 -15.960938 9.328125 -15.960938 C 4.890625 -15.960938 1.558594 -12.601562 1.558594 -8.070312 C 1.558594 -3.511719 4.890625 -0.148438 9.328125 -0.148438 C 11.578125 -0.148438 13.53125 -1.019531 14.910156 -2.460938 L 14.910156 -0.988281 C 14.910156 2.21875 13.019531 4.050781 9.75 4.050781 C 7.199219 4.050781 5.429688 2.878906 4.949219 0.988281 L 2.398438 0.988281 C 2.96875 4.320312 5.789062 6.390625 9.75 6.390625 Z M 4.078125 -8.070312 C 4.078125 -11.25 6.390625 -13.53125 9.601562 -13.53125 C 12.839844 -13.53125 15.121094 -11.25 15.121094 -8.070312 C 15.121094 -4.859375 12.839844 -2.609375 9.601562 -2.609375 C 6.390625 -2.609375 4.078125 -4.859375 4.078125 -8.070312 Z M 4.078125 -8.070312 "/></g></g></g><g fill="#000000" fill-opacity="1"><g transform="translate(558.32438, 333.221165)"><g><path d="M 9.539062 0.390625 C 13.050781 0.390625 15.929688 -1.5 17.191406 -4.53125 L 14.339844 -4.53125 C 13.378906 -2.878906 11.609375 -1.980469 9.570312 -1.980469 C 6.601562 -1.980469 4.5 -3.839844 4.109375 -6.78125 L 17.578125 -6.78125 C 17.761719 -12.210938 14.550781 -15.960938 9.570312 -15.960938 C 4.859375 -15.960938 1.558594 -12.601562 1.558594 -7.800781 C 1.558594 -2.96875 4.828125 0.390625 9.539062 0.390625 Z M 4.140625 -9 C 4.589844 -11.761719 6.691406 -13.589844 9.570312 -13.589844 C 12.421875 -13.589844 14.519531 -11.851562 15.058594 -9 Z M 4.140625 -9 "/></g></g></g><g fill="#000000" fill-opacity="1"><g transform="translate(39.980472, 606.753612)"><g><path d="M 3.058594 0 L 5.699219 0 L 5.699219 -8.851562 L 14.308594 -8.851562 L 14.308594 -11.28125 L 5.699219 -11.28125 L 5.699219 -18.539062 L 15.089844 -18.539062 L 15.089844 -21 L 3.058594 -21 Z M 3.058594 0 "/></g></g></g><g fill="#000000" fill-opacity="1"><g transform="translate(56.720454, 606.753612)"><g><path d="M 9.808594 0.390625 C 14.640625 0.390625 18.058594 -3.03125 18.058594 -7.800781 C 18.058594 -12.570312 14.640625 -15.960938 9.808594 -15.960938 C 4.980469 -15.960938 1.558594 -12.570312 1.558594 -7.800781 C 1.558594 -3.03125 4.980469 0.390625 9.808594 0.390625 Z M 4.078125 -7.800781 C 4.078125 -11.191406 6.449219 -13.558594 9.808594 -13.558594 C 13.171875 -13.558594 15.539062 -11.191406 15.539062 -7.800781 C 15.539062 -4.378906 13.171875 -2.039062 9.808594 -2.039062 C 6.449219 -2.039062 4.078125 -4.378906 4.078125 -7.800781 Z M 4.078125 -7.800781 "/></g></g></g><g fill="#000000" fill-opacity="1"><g transform="translate(76.340433, 606.753612)"><g><path d="M 9.808594 0.390625 C 14.640625 0.390625 18.058594 -3.03125 18.058594 -7.800781 C 18.058594 -12.570312 14.640625 -15.960938 9.808594 -15.960938 C 4.980469 -15.960938 1.558594 -12.570312 1.558594 -7.800781 C 1.558594 -3.03125 4.980469 0.390625 9.808594 0.390625 Z M 4.078125 -7.800781 C 4.078125 -11.191406 6.449219 -13.558594 9.808594 -13.558594 C 13.171875 -13.558594 15.539062 -11.191406 15.539062 -7.800781 C 15.539062 -4.378906 13.171875 -2.039062 9.808594 -2.039062 C 6.449219 -2.039062 4.078125 -4.378906 4.078125 -7.800781 Z M 4.078125 -7.800781 "/></g></g></g><g fill="#000000" fill-opacity="1"><g transform="translate(95.960412, 606.753612)"><g><path d="M 9.511719 0.390625 C 12.03125 0.390625 14.191406 -0.660156 15.601562 -2.398438 L 15.898438 0 L 17.96875 0 L 17.96875 -22.199219 L 15.449219 -22.199219 L 15.449219 -13.378906 C 14.039062 -15 11.941406 -15.960938 9.511719 -15.960938 C 4.890625 -15.960938 1.558594 -12.511719 1.558594 -7.800781 C 1.558594 -3.058594 4.890625 0.390625 9.511719 0.390625 Z M 4.078125 -7.800781 C 4.078125 -11.160156 6.449219 -13.558594 9.808594 -13.558594 C 13.199219 -13.558594 15.539062 -11.160156 15.539062 -7.800781 C 15.539062 -4.410156 13.199219 -2.039062 9.808594 -2.039062 C 6.449219 -2.039062 4.078125 -4.410156 4.078125 -7.800781 Z M 4.078125 -7.800781 "/></g></g></g><g fill="#000000" fill-opacity="1"><g transform="translate(116.720393, 606.753612)"><g/></g></g><g fill="#000000" fill-opacity="1"><g transform="translate(124.160392, 606.753612)"><g><path d="M 8.128906 0 L 10.769531 0 L 10.769531 -18.480469 L 17.851562 -18.480469 L 17.851562 -21 L 1.019531 -21 L 1.019531 -18.480469 L 8.128906 -18.480469 Z M 8.128906 0 "/></g></g></g><g fill="#000000" fill-opacity="1"><g transform="translate(143.060377, 606.753612)"><g><path d="M 9.539062 0.390625 C 13.050781 0.390625 15.929688 -1.5 17.191406 -4.53125 L 14.339844 -4.53125 C 13.378906 -2.878906 11.609375 -1.980469 9.570312 -1.980469 C 6.601562 -1.980469 4.5 -3.839844 4.109375 -6.78125 L 17.578125 -6.78125 C 17.761719 -12.210938 14.550781 -15.960938 9.570312 -15.960938 C 4.859375 -15.960938 1.558594 -12.601562 1.558594 -7.800781 C 1.558594 -2.96875 4.828125 0.390625 9.539062 0.390625 Z M 4.140625 -9 C 4.589844 -11.761719 6.691406 -13.589844 9.570312 -13.589844 C 12.421875 -13.589844 14.519531 -11.851562 15.058594 -9 Z M 4.140625 -9 "/></g></g></g><g fill="#000000" fill-opacity="1"><g transform="translate(162.140355, 606.753612)"><g><path d="M 8.429688 0.390625 C 12.269531 0.390625 14.761719 -1.378906 14.761719 -4.078125 C 14.761719 -6.511719 12.71875 -8.160156 8.789062 -8.941406 C 5.550781 -9.570312 4.441406 -10.199219 4.441406 -11.519531 C 4.441406 -12.898438 5.761719 -13.738281 8.011719 -13.738281 C 10.378906 -13.738281 11.789062 -12.808594 11.96875 -11.101562 L 14.460938 -11.101562 C 14.25 -14.160156 11.820312 -15.960938 7.980469 -15.960938 C 4.230469 -15.960938 1.949219 -14.308594 1.949219 -11.519531 C 1.949219 -9.058594 3.839844 -7.558594 7.859375 -6.898438 C 10.890625 -6.390625 12.269531 -5.550781 12.269531 -4.140625 C 12.269531 -2.730469 10.828125 -1.859375 8.460938 -1.859375 C 5.789062 -1.859375 4.199219 -3 4.109375 -4.890625 L 1.621094 -4.890625 C 1.679688 -1.710938 4.351562 0.390625 8.429688 0.390625 Z M 8.429688 0.390625 "/></g></g></g><g fill="#000000" fill-opacity="1"><g transform="translate(178.52034, 606.753612)"><g><path d="M 9.511719 0 L 11.851562 0 L 11.851562 -2.429688 L 9.628906 -2.429688 C 7.558594 -2.429688 6.601562 -3.480469 6.601562 -5.730469 L 6.601562 -13.261719 L 11.640625 -13.261719 L 11.640625 -15.570312 L 6.601562 -15.570312 L 6.601562 -19.441406 L 4.648438 -19.441406 L 4.410156 -17.339844 C 4.230469 -15.929688 3.808594 -15.570312 2.371094 -15.570312 L 0.808594 -15.570312 L 0.808594 -13.261719 L 4.078125 -13.261719 L 4.078125 -5.609375 C 4.078125 -2.039062 6.058594 0 9.511719 0 Z M 9.511719 0 "/></g></g></g><g fill="#000000" fill-opacity="1"><g transform="translate(191.840324, 606.753612)"><g><path d="M 2.789062 0 L 5.308594 0 L 5.308594 -15.570312 L 2.789062 -15.570312 Z M 2.011719 -20.101562 C 2.011719 -18.988281 2.820312 -18.148438 4.050781 -18.148438 C 5.28125 -18.148438 6.058594 -18.988281 6.058594 -20.101562 C 6.058594 -21.238281 5.28125 -22.078125 4.050781 -22.078125 C 2.820312 -22.078125 2.011719 -21.238281 2.011719 -20.101562 Z M 2.011719 -20.101562 "/></g></g></g><g fill="#000000" fill-opacity="1"><g transform="translate(199.940314, 606.753612)"><g><path d="M 2.789062 0 L 5.308594 0 L 5.308594 -7.859375 C 5.308594 -11.28125 7.378906 -13.558594 10.289062 -13.558594 C 13.019531 -13.558594 14.699219 -11.578125 14.699219 -8.429688 L 14.699219 0 L 17.21875 0 L 17.21875 -8.671875 C 17.21875 -13.109375 14.761719 -15.960938 10.621094 -15.960938 C 8.519531 -15.960938 6.480469 -15.148438 5.128906 -13.289062 L 4.859375 -15.570312 L 2.789062 -15.570312 Z M 2.789062 0 "/></g></g></g><g fill="#000000" fill-opacity="1"><g transform="translate(219.650289, 606.753612)"><g><path d="M 9.75 6.390625 C 14.398438 6.390625 17.429688 3.511719 17.429688 -0.898438 L 17.429688 -15.570312 L 15.359375 -15.570312 L 15.089844 -13.46875 C 13.710938 -15.03125 11.671875 -15.960938 9.328125 -15.960938 C 4.890625 -15.960938 1.558594 -12.601562 1.558594 -8.070312 C 1.558594 -3.511719 4.890625 -0.148438 9.328125 -0.148438 C 11.578125 -0.148438 13.53125 -1.019531 14.910156 -2.460938 L 14.910156 -0.988281 C 14.910156 2.21875 13.019531 4.050781 9.75 4.050781 C 7.199219 4.050781 5.429688 2.878906 4.949219 0.988281 L 2.398438 0.988281 C 2.96875 4.320312 5.789062 6.390625 9.75 6.390625 Z M 4.078125 -8.070312 C 4.078125 -11.25 6.390625 -13.53125 9.601562 -13.53125 C 12.839844 -13.53125 15.121094 -11.25 15.121094 -8.070312 C 15.121094 -4.859375 12.839844 -2.609375 9.601562 -2.609375 C 6.390625 -2.609375 4.078125 -4.859375 4.078125 -8.070312 Z M 4.078125 -8.070312 "/></g></g></g><g fill="#000000" fill-opacity="1"><g transform="translate(373.674564, 606.753612)"><g><path d="M 3.058594 0 L 10.320312 0 C 16.769531 0 21.089844 -4.289062 21.089844 -10.5 C 21.089844 -16.710938 16.769531 -21 10.320312 -21 L 3.058594 -21 Z M 5.699219 -2.519531 L 5.699219 -18.480469 L 10.199219 -18.480469 C 15.089844 -18.480469 18.390625 -15.269531 18.390625 -10.5 C 18.390625 -5.730469 15.121094 -2.519531 10.320312 -2.519531 Z M 5.699219 -2.519531 "/></g></g></g><g fill="#000000" fill-opacity="1"><g transform="translate(396.504542, 606.753612)"><g><path d="M 9.539062 0.390625 C 13.050781 0.390625 15.929688 -1.5 17.191406 -4.53125 L 14.339844 -4.53125 C 13.378906 -2.878906 11.609375 -1.980469 9.570312 -1.980469 C 6.601562 -1.980469 4.5 -3.839844 4.109375 -6.78125 L 17.578125 -6.78125 C 17.761719 -12.210938 14.550781 -15.960938 9.570312 -15.960938 C 4.859375 -15.960938 1.558594 -12.601562 1.558594 -7.800781 C 1.558594 -2.96875 4.828125 0.390625 9.539062 0.390625 Z M 4.140625 -9 C 4.589844 -11.761719 6.691406 -13.589844 9.570312 -13.589844 C 12.421875 -13.589844 14.519531 -11.851562 15.058594 -9 Z M 4.140625 -9 "/></g></g></g><g fill="#000000" fill-opacity="1"><g transform="translate(415.58452, 606.753612)"><g><path d="M 9.539062 0.390625 C 13.050781 0.390625 15.929688 -1.5 17.191406 -4.53125 L 14.339844 -4.53125 C 13.378906 -2.878906 11.609375 -1.980469 9.570312 -1.980469 C 6.601562 -1.980469 4.5 -3.839844 4.109375 -6.78125 L 17.578125 -6.78125 C 17.761719 -12.210938 14.550781 -15.960938 9.570312 -15.960938 C 4.859375 -15.960938 1.558594 -12.601562 1.558594 -7.800781 C 1.558594 -2.96875 4.828125 0.390625 9.539062 0.390625 Z M 4.140625 -9 C 4.589844 -11.761719 6.691406 -13.589844 9.570312 -13.589844 C 12.421875 -13.589844 14.519531 -11.851562 15.058594 -9 Z M 4.140625 -9 "/></g></g></g><g fill="#000000" fill-opacity="1"><g transform="translate(434.664498, 606.753612)"><g><path d="M 11.28125 0.390625 C 15.871094 0.390625 19.199219 -3.058594 19.199219 -7.800781 C 19.199219 -12.511719 15.871094 -15.960938 11.28125 -15.960938 C 8.730469 -15.960938 6.570312 -14.910156 5.160156 -13.171875 L 4.859375 -15.570312 L 2.789062 -15.570312 L 2.789062 6 L 5.308594 6 L 5.308594 -2.21875 C 6.71875 -0.601562 8.820312 0.390625 11.28125 0.390625 Z M 5.21875 -7.800781 C 5.21875 -11.160156 7.589844 -13.558594 10.949219 -13.558594 C 14.339844 -13.558594 16.679688 -11.160156 16.679688 -7.800781 C 16.679688 -4.410156 14.339844 -2.039062 10.949219 -2.039062 C 7.589844 -2.039062 5.21875 -4.410156 5.21875 -7.800781 Z M 5.21875 -7.800781 "/></g></g></g><g fill="#000000" fill-opacity="1"><g transform="translate(455.42448, 606.753612)"><g/></g></g><g fill="#000000" fill-opacity="1"><g transform="translate(462.864478, 606.753612)"><g><path d="M 3.058594 0 L 5.699219 0 L 5.699219 -8.851562 L 14.308594 -8.851562 L 14.308594 -11.28125 L 5.699219 -11.28125 L 5.699219 -18.539062 L 15.089844 -18.539062 L 15.089844 -21 L 3.058594 -21 Z M 3.058594 0 "/></g></g></g><g fill="#000000" fill-opacity="1"><g transform="translate(479.60446, 606.753612)"><g><path d="M 2.789062 0 L 5.308594 0 L 5.308594 -7.230469 C 5.308594 -11.671875 7.53125 -13.230469 10.351562 -13.230469 L 11.878906 -13.230469 L 11.878906 -15.570312 L 10.46875 -15.570312 C 7.828125 -15.570312 6.269531 -14.730469 5.160156 -12.871094 L 4.859375 -15.570312 L 2.789062 -15.570312 Z M 2.789062 0 "/></g></g></g><g fill="#000000" fill-opacity="1"><g transform="translate(492.68445, 606.753612)"><g><path d="M 9.539062 0.390625 C 13.050781 0.390625 15.929688 -1.5 17.191406 -4.53125 L 14.339844 -4.53125 C 13.378906 -2.878906 11.609375 -1.980469 9.570312 -1.980469 C 6.601562 -1.980469 4.5 -3.839844 4.109375 -6.78125 L 17.578125 -6.78125 C 17.761719 -12.210938 14.550781 -15.960938 9.570312 -15.960938 C 4.859375 -15.960938 1.558594 -12.601562 1.558594 -7.800781 C 1.558594 -2.96875 4.828125 0.390625 9.539062 0.390625 Z M 4.140625 -9 C 4.589844 -11.761719 6.691406 -13.589844 9.570312 -13.589844 C 12.421875 -13.589844 14.519531 -11.851562 15.058594 -9 Z M 4.140625 -9 "/></g></g></g><g fill="#000000" fill-opacity="1"><g transform="translate(511.764428, 606.753612)"><g><path d="M 9.539062 0.390625 C 13.050781 0.390625 15.929688 -1.5 17.191406 -4.53125 L 14.339844 -4.53125 C 13.378906 -2.878906 11.609375 -1.980469 9.570312 -1.980469 C 6.601562 -1.980469 4.5 -3.839844 4.109375 -6.78125 L 17.578125 -6.78125 C 17.761719 -12.210938 14.550781 -15.960938 9.570312 -15.960938 C 4.859375 -15.960938 1.558594 -12.601562 1.558594 -7.800781 C 1.558594 -2.96875 4.828125 0.390625 9.539062 0.390625 Z M 4.140625 -9 C 4.589844 -11.761719 6.691406 -13.589844 9.570312 -13.589844 C 12.421875 -13.589844 14.519531 -11.851562 15.058594 -9 Z M 4.140625 -9 "/></g></g></g><g fill="#000000" fill-opacity="1"><g transform="translate(530.844406, 606.753612)"><g><path d="M 1.441406 0 L 14.398438 0 L 14.398438 -2.308594 L 4.921875 -2.308594 L 14.21875 -13.679688 L 14.21875 -15.570312 L 1.738281 -15.570312 L 1.738281 -13.261719 L 10.800781 -13.261719 L 1.441406 -1.890625 Z M 1.441406 0 "/></g></g></g><g fill="#000000" fill-opacity="1"><g transform="translate(546.654395, 606.753612)"><g><path d="M 9.539062 0.390625 C 13.050781 0.390625 15.929688 -1.5 17.191406 -4.53125 L 14.339844 -4.53125 C 13.378906 -2.878906 11.609375 -1.980469 9.570312 -1.980469 C 6.601562 -1.980469 4.5 -3.839844 4.109375 -6.78125 L 17.578125 -6.78125 C 17.761719 -12.210938 14.550781 -15.960938 9.570312 -15.960938 C 4.859375 -15.960938 1.558594 -12.601562 1.558594 -7.800781 C 1.558594 -2.96875 4.828125 0.390625 9.539062 0.390625 Z M 4.140625 -9 C 4.589844 -11.761719 6.691406 -13.589844 9.570312 -13.589844 C 12.421875 -13.589844 14.519531 -11.851562 15.058594 -9 Z M 4.140625 -9 "/></g></g></g><g fill="#000000" fill-opacity="1"><g transform="translate(565.734384, 606.753612)"><g><path d="M 2.789062 0 L 5.308594 0 L 5.308594 -7.230469 C 5.308594 -11.671875 7.53125 -13.230469 10.351562 -13.230469 L 11.878906 -13.230469 L 11.878906 -15.570312 L 10.46875 -15.570312 C 7.828125 -15.570312 6.269531 -14.730469 5.160156 -12.871094 L 4.859375 -15.570312 L 2.789062 -15.570312 Z M 2.789062 0 "/></g></g></g><g fill="#000000" fill-opacity="1"><g transform="translate(126.196455, 864.038999)"><g><path d="M 10.050781 0.390625 C 14.640625 0.390625 17.609375 -1.859375 17.609375 -5.519531 C 17.609375 -8.609375 15.539062 -10.46875 10.171875 -11.789062 C 6.089844 -12.78125 4.738281 -13.859375 4.738281 -15.601562 C 4.738281 -17.609375 6.539062 -18.871094 9.539062 -18.871094 C 12.628906 -18.871094 14.550781 -17.308594 14.609375 -14.789062 L 17.21875 -14.789062 C 17.191406 -18.871094 14.25 -21.390625 9.539062 -21.390625 C 4.949219 -21.390625 2.039062 -19.140625 2.039062 -15.601562 C 2.039062 -12.359375 4.351562 -10.558594 9.511719 -9.328125 C 13.289062 -8.429688 14.878906 -7.378906 14.878906 -5.429688 C 14.878906 -3.359375 13.019531 -2.128906 10.050781 -2.128906 C 6.78125 -2.128906 4.5 -3.75 4.441406 -6.449219 L 1.800781 -6.449219 C 1.828125 -2.339844 5.039062 0.390625 10.050781 0.390625 Z M 10.050781 0.390625 "/></g></g></g><g fill="#000000" fill-opacity="1"><g transform="translate(145.606435, 864.038999)"><g><path d="M 9.511719 0 L 11.851562 0 L 11.851562 -2.429688 L 9.628906 -2.429688 C 7.558594 -2.429688 6.601562 -3.480469 6.601562 -5.730469 L 6.601562 -13.261719 L 11.640625 -13.261719 L 11.640625 -15.570312 L 6.601562 -15.570312 L 6.601562 -19.441406 L 4.648438 -19.441406 L 4.410156 -17.339844 C 4.230469 -15.929688 3.808594 -15.570312 2.371094 -15.570312 L 0.808594 -15.570312 L 0.808594 -13.261719 L 4.078125 -13.261719 L 4.078125 -5.609375 C 4.078125 -2.039062 6.058594 0 9.511719 0 Z M 9.511719 0 "/></g></g></g><g fill="#000000" fill-opacity="1"><g transform="translate(158.926418, 864.038999)"><g><path d="M 9.539062 0.390625 C 13.050781 0.390625 15.929688 -1.5 17.191406 -4.53125 L 14.339844 -4.53125 C 13.378906 -2.878906 11.609375 -1.980469 9.570312 -1.980469 C 6.601562 -1.980469 4.5 -3.839844 4.109375 -6.78125 L 17.578125 -6.78125 C 17.761719 -12.210938 14.550781 -15.960938 9.570312 -15.960938 C 4.859375 -15.960938 1.558594 -12.601562 1.558594 -7.800781 C 1.558594 -2.96875 4.828125 0.390625 9.539062 0.390625 Z M 4.140625 -9 C 4.589844 -11.761719 6.691406 -13.589844 9.570312 -13.589844 C 12.421875 -13.589844 14.519531 -11.851562 15.058594 -9 Z M 4.140625 -9 "/></g></g></g><g fill="#000000" fill-opacity="1"><g transform="translate(178.006396, 864.038999)"><g><path d="M 7.890625 0.238281 C 10.410156 0.238281 12.390625 -0.570312 13.800781 -2.160156 L 14.070312 0 L 16.140625 0 L 16.140625 -9.898438 C 16.140625 -13.5 13.410156 -15.960938 9.328125 -15.960938 C 5.941406 -15.960938 3.390625 -14.128906 2.699219 -11.128906 L 5.25 -11.128906 C 5.761719 -12.660156 7.351562 -13.621094 9.359375 -13.621094 C 12 -13.621094 13.621094 -12.148438 13.621094 -9.71875 L 13.621094 -9.148438 L 7.261719 -9.148438 C 4.019531 -9.148438 1.890625 -7.320312 1.890625 -4.5 C 1.890625 -1.558594 4.140625 0.238281 7.890625 0.238281 Z M 4.410156 -4.53125 C 4.410156 -6 5.609375 -6.929688 7.351562 -6.929688 L 13.648438 -6.929688 C 13.558594 -4.050781 11.21875 -2.011719 7.980469 -2.011719 C 5.789062 -2.011719 4.410156 -3 4.410156 -4.53125 Z M 4.410156 -4.53125 "/></g></g></g><g fill="#000000" fill-opacity="1"><g transform="translate(196.606375, 864.038999)"><g><path d="M 2.789062 0 L 5.308594 0 L 5.308594 -8.28125 C 5.308594 -11.488281 7.109375 -13.558594 9.808594 -13.558594 C 12.421875 -13.558594 14.070312 -11.578125 14.070312 -8.488281 L 14.070312 0 L 16.589844 0 L 16.589844 -8.28125 C 16.589844 -11.488281 18.390625 -13.558594 21.089844 -13.558594 C 23.699219 -13.558594 25.351562 -11.578125 25.351562 -8.488281 L 25.351562 0 L 27.871094 0 L 27.871094 -8.910156 C 27.871094 -13.261719 25.351562 -15.960938 21.421875 -15.960938 C 18.898438 -15.960938 16.859375 -14.878906 15.628906 -12.898438 C 14.578125 -14.910156 12.660156 -15.960938 10.171875 -15.960938 C 8.011719 -15.960938 6.269531 -15.148438 5.101562 -13.621094 L 4.859375 -15.570312 L 2.789062 -15.570312 Z M 2.789062 0 "/></g></g></g><g fill="#000000" fill-opacity="1"><g transform="translate(226.966347, 864.038999)"><g/></g></g><g fill="#000000" fill-opacity="1"><g transform="translate(234.406345, 864.038999)"><g><path d="M 12.421875 0.390625 C 18.871094 0.390625 23.21875 -4.5 23.101562 -11.398438 L 11.699219 -11.398438 L 11.699219 -8.878906 L 20.25 -8.878906 C 19.710938 -4.921875 16.710938 -2.25 12.480469 -2.25 C 7.769531 -2.25 4.441406 -5.640625 4.441406 -10.5 C 4.441406 -15.359375 7.738281 -18.75 12.449219 -18.75 C 15.691406 -18.75 18.269531 -17.160156 19.589844 -14.460938 L 22.46875 -14.460938 C 21.121094 -18.601562 17.160156 -21.390625 12.359375 -21.390625 C 6.210938 -21.390625 1.738281 -16.800781 1.738281 -10.5 C 1.738281 -4.171875 6.238281 0.390625 12.421875 0.390625 Z M 12.421875 0.390625 "/></g></g></g><g fill="#000000" fill-opacity="1"><g transform="translate(259.156321, 864.038999)"><g><path d="M 9.539062 0.390625 C 13.050781 0.390625 15.929688 -1.5 17.191406 -4.53125 L 14.339844 -4.53125 C 13.378906 -2.878906 11.609375 -1.980469 9.570312 -1.980469 C 6.601562 -1.980469 4.5 -3.839844 4.109375 -6.78125 L 17.578125 -6.78125 C 17.761719 -12.210938 14.550781 -15.960938 9.570312 -15.960938 C 4.859375 -15.960938 1.558594 -12.601562 1.558594 -7.800781 C 1.558594 -2.96875 4.828125 0.390625 9.539062 0.390625 Z M 4.140625 -9 C 4.589844 -11.761719 6.691406 -13.589844 9.570312 -13.589844 C 12.421875 -13.589844 14.519531 -11.851562 15.058594 -9 Z M 4.140625 -9 "/></g></g></g><g fill="#000000" fill-opacity="1"><g transform="translate(278.236299, 864.038999)"><g><path d="M 2.789062 0 L 5.308594 0 L 5.308594 -7.859375 C 5.308594 -11.28125 7.378906 -13.558594 10.289062 -13.558594 C 13.019531 -13.558594 14.699219 -11.578125 14.699219 -8.429688 L 14.699219 0 L 17.21875 0 L 17.21875 -8.671875 C 17.21875 -13.109375 14.761719 -15.960938 10.621094 -15.960938 C 8.519531 -15.960938 6.480469 -15.148438 5.128906 -13.289062 L 4.859375 -15.570312 L 2.789062 -15.570312 Z M 2.789062 0 "/></g></g></g><g fill="#000000" fill-opacity="1"><g transform="translate(297.946274, 864.038999)"><g><path d="M 9.539062 0.390625 C 13.050781 0.390625 15.929688 -1.5 17.191406 -4.53125 L 14.339844 -4.53125 C 13.378906 -2.878906 11.609375 -1.980469 9.570312 -1.980469 C 6.601562 -1.980469 4.5 -3.839844 4.109375 -6.78125 L 17.578125 -6.78125 C 17.761719 -12.210938 14.550781 -15.960938 9.570312 -15.960938 C 4.859375 -15.960938 1.558594 -12.601562 1.558594 -7.800781 C 1.558594 -2.96875 4.828125 0.390625 9.539062 0.390625 Z M 4.140625 -9 C 4.589844 -11.761719 6.691406 -13.589844 9.570312 -13.589844 C 12.421875 -13.589844 14.519531 -11.851562 15.058594 -9 Z M 4.140625 -9 "/></g></g></g><g fill="#000000" fill-opacity="1"><g transform="translate(317.026252, 864.038999)"><g><path d="M 2.789062 0 L 5.308594 0 L 5.308594 -7.230469 C 5.308594 -11.671875 7.53125 -13.230469 10.351562 -13.230469 L 11.878906 -13.230469 L 11.878906 -15.570312 L 10.46875 -15.570312 C 7.828125 -15.570312 6.269531 -14.730469 5.160156 -12.871094 L 4.859375 -15.570312 L 2.789062 -15.570312 Z M 2.789062 0 "/></g></g></g><g fill="#000000" fill-opacity="1"><g transform="translate(330.106241, 864.038999)"><g><path d="M 7.890625 0.238281 C 10.410156 0.238281 12.390625 -0.570312 13.800781 -2.160156 L 14.070312 0 L 16.140625 0 L 16.140625 -9.898438 C 16.140625 -13.5 13.410156 -15.960938 9.328125 -15.960938 C 5.941406 -15.960938 3.390625 -14.128906 2.699219 -11.128906 L 5.25 -11.128906 C 5.761719 -12.660156 7.351562 -13.621094 9.359375 -13.621094 C 12 -13.621094 13.621094 -12.148438 13.621094 -9.71875 L 13.621094 -9.148438 L 7.261719 -9.148438 C 4.019531 -9.148438 1.890625 -7.320312 1.890625 -4.5 C 1.890625 -1.558594 4.140625 0.238281 7.890625 0.238281 Z M 4.410156 -4.53125 C 4.410156 -6 5.609375 -6.929688 7.351562 -6.929688 L 13.648438 -6.929688 C 13.558594 -4.050781 11.21875 -2.011719 7.980469 -2.011719 C 5.789062 -2.011719 4.410156 -3 4.410156 -4.53125 Z M 4.410156 -4.53125 "/></g></g></g><g fill="#000000" fill-opacity="1"><g transform="translate(348.706208, 864.038999)"><g><path d="M 9.511719 0 L 11.851562 0 L 11.851562 -2.429688 L 9.628906 -2.429688 C 7.558594 -2.429688 6.601562 -3.480469 6.601562 -5.730469 L 6.601562 -13.261719 L 11.640625 -13.261719 L 11.640625 -15.570312 L 6.601562 -15.570312 L 6.601562 -19.441406 L 4.648438 -19.441406 L 4.410156 -17.339844 C 4.230469 -15.929688 3.808594 -15.570312 2.371094 -15.570312 L 0.808594 -15.570312 L 0.808594 -13.261719 L 4.078125 -13.261719 L 4.078125 -5.609375 C 4.078125 -2.039062 6.058594 0 9.511719 0 Z M 9.511719 0 "/></g></g></g><g fill="#000000" fill-opacity="1"><g transform="translate(362.026192, 864.038999)"><g><path d="M 2.789062 0 L 5.308594 0 L 5.308594 -15.570312 L 2.789062 -15.570312 Z M 2.011719 -20.101562 C 2.011719 -18.988281 2.820312 -18.148438 4.050781 -18.148438 C 5.28125 -18.148438 6.058594 -18.988281 6.058594 -20.101562 C 6.058594 -21.238281 5.28125 -22.078125 4.050781 -22.078125 C 2.820312 -22.078125 2.011719 -21.238281 2.011719 -20.101562 Z M 2.011719 -20.101562 "/></g></g></g><g fill="#000000" fill-opacity="1"><g transform="translate(370.126182, 864.038999)"><g><path d="M 9.808594 0.390625 C 14.640625 0.390625 18.058594 -3.03125 18.058594 -7.800781 C 18.058594 -12.570312 14.640625 -15.960938 9.808594 -15.960938 C 4.980469 -15.960938 1.558594 -12.570312 1.558594 -7.800781 C 1.558594 -3.03125 4.980469 0.390625 9.808594 0.390625 Z M 4.078125 -7.800781 C 4.078125 -11.191406 6.449219 -13.558594 9.808594 -13.558594 C 13.171875 -13.558594 15.539062 -11.191406 15.539062 -7.800781 C 15.539062 -4.378906 13.171875 -2.039062 9.808594 -2.039062 C 6.449219 -2.039062 4.078125 -4.378906 4.078125 -7.800781 Z M 4.078125 -7.800781 "/></g></g></g><g fill="#000000" fill-opacity="1"><g transform="translate(389.746161, 864.038999)"><g><path d="M 2.789062 0 L 5.308594 0 L 5.308594 -7.859375 C 5.308594 -11.28125 7.378906 -13.558594 10.289062 -13.558594 C 13.019531 -13.558594 14.699219 -11.578125 14.699219 -8.429688 L 14.699219 0 L 17.21875 0 L 17.21875 -8.671875 C 17.21875 -13.109375 14.761719 -15.960938 10.621094 -15.960938 C 8.519531 -15.960938 6.480469 -15.148438 5.128906 -13.289062 L 4.859375 -15.570312 L 2.789062 -15.570312 Z M 2.789062 0 "/></g></g></g><g fill="#000000" fill-opacity="1"><g transform="translate(409.456136, 864.038999)"><g/></g></g><g fill="#000000" fill-opacity="1"><g transform="translate(416.896145, 864.038999)"><g><path d="M 3.058594 0 L 11.578125 0 C 15.808594 0 18.449219 -2.25 18.449219 -5.878906 C 18.449219 -8.25 17.28125 -10.019531 15.121094 -10.890625 C 16.828125 -11.761719 17.851562 -13.378906 17.851562 -15.421875 C 17.851562 -18.808594 15.210938 -21 11.191406 -21 L 3.058594 -21 Z M 5.699219 -2.460938 L 5.699219 -9.511719 L 11.488281 -9.511719 C 14.21875 -9.511719 15.75 -8.21875 15.75 -6 C 15.75 -3.75 14.21875 -2.460938 11.519531 -2.460938 Z M 5.699219 -11.910156 L 5.699219 -18.539062 L 11.128906 -18.539062 C 13.679688 -18.539062 15.148438 -17.339844 15.148438 -15.210938 C 15.148438 -13.109375 13.710938 -11.910156 11.128906 -11.910156 Z M 5.699219 -11.910156 "/></g></g></g><g fill="#000000" fill-opacity="1"><g transform="translate(437.026119, 864.038999)"><g><path d="M 9.808594 0.390625 C 14.640625 0.390625 18.058594 -3.03125 18.058594 -7.800781 C 18.058594 -12.570312 14.640625 -15.960938 9.808594 -15.960938 C 4.980469 -15.960938 1.558594 -12.570312 1.558594 -7.800781 C 1.558594 -3.03125 4.980469 0.390625 9.808594 0.390625 Z M 4.078125 -7.800781 C 4.078125 -11.191406 6.449219 -13.558594 9.808594 -13.558594 C 13.171875 -13.558594 15.539062 -11.191406 15.539062 -7.800781 C 15.539062 -4.378906 13.171875 -2.039062 9.808594 -2.039062 C 6.449219 -2.039062 4.078125 -4.378906 4.078125 -7.800781 Z M 4.078125 -7.800781 "/></g></g></g><g fill="#000000" fill-opacity="1"><g transform="translate(456.646098, 864.038999)"><g><path d="M 2.789062 0 L 5.308594 0 L 5.308594 -15.570312 L 2.789062 -15.570312 Z M 2.011719 -20.101562 C 2.011719 -18.988281 2.820312 -18.148438 4.050781 -18.148438 C 5.28125 -18.148438 6.058594 -18.988281 6.058594 -20.101562 C 6.058594 -21.238281 5.28125 -22.078125 4.050781 -22.078125 C 2.820312 -22.078125 2.011719 -21.238281 2.011719 -20.101562 Z M 2.011719 -20.101562 "/></g></g></g><g fill="#000000" fill-opacity="1"><g transform="translate(464.746088, 864.038999)"><g><path d="M 2.789062 0 L 5.308594 0 L 5.308594 -22.199219 L 2.789062 -22.199219 Z M 2.789062 0 "/></g></g></g><g fill="#000000" fill-opacity="1"><g transform="translate(472.846078, 864.038999)"><g><path d="M 9.539062 0.390625 C 13.050781 0.390625 15.929688 -1.5 17.191406 -4.53125 L 14.339844 -4.53125 C 13.378906 -2.878906 11.609375 -1.980469 9.570312 -1.980469 C 6.601562 -1.980469 4.5 -3.839844 4.109375 -6.78125 L 17.578125 -6.78125 C 17.761719 -12.210938 14.550781 -15.960938 9.570312 -15.960938 C 4.859375 -15.960938 1.558594 -12.601562 1.558594 -7.800781 C 1.558594 -2.96875 4.828125 0.390625 9.539062 0.390625 Z M 4.140625 -9 C 4.589844 -11.761719 6.691406 -13.589844 9.570312 -13.589844 C 12.421875 -13.589844 14.519531 -11.851562 15.058594 -9 Z M 4.140625 -9 "/></g></g></g><g fill="#000000" fill-opacity="1"><g transform="translate(491.926056, 864.038999)"><g><path d="M 2.789062 0 L 5.308594 0 L 5.308594 -7.230469 C 5.308594 -11.671875 7.53125 -13.230469 10.351562 -13.230469 L 11.878906 -13.230469 L 11.878906 -15.570312 L 10.46875 -15.570312 C 7.828125 -15.570312 6.269531 -14.730469 5.160156 -12.871094 L 4.859375 -15.570312 L 2.789062 -15.570312 Z M 2.789062 0 "/></g></g></g></svg>