<svg xmlns="http://www.w3.org/2000/svg" xmlns:xlink="http://www.w3.org/1999/xlink" width="32.812" zoomAndPan="magnify" viewBox="0 0 375 374.999991" height="32.812" preserveAspectRatio="xMidYMid meet" version="1.0"><defs><clipPath id="5aeb311466"><path d="M 28.785156 107 L 346 107 L 346 364.917969 L 28.785156 364.917969 Z M 28.785156 107 " clip-rule="nonzero"/></clipPath><clipPath id="ce34d920b0"><path d="M 194 10.167969 L 247 10.167969 L 247 101 L 194 101 Z M 194 10.167969 " clip-rule="nonzero"/></clipPath></defs><g clip-path="url(#5aeb311466)"><path fill="#000000" d="M 342.464844 253.984375 C 337.289062 246.578125 326.273438 243.835938 317.371094 247.722656 L 293.277344 257.667969 C 274.789062 243.757812 250.664062 235.84375 224.757812 235.15625 L 224.757812 213.167969 L 247.660156 200.351562 C 254.277344 209.058594 264.734375 214.691406 276.484375 214.691406 C 296.453125 214.691406 312.695312 198.433594 312.695312 178.449219 C 312.695312 158.46875 296.453125 142.210938 276.484375 142.210938 C 256.519531 142.210938 240.273438 158.46875 240.273438 178.449219 C 240.273438 184.035156 241.546875 189.328125 243.808594 194.058594 L 224.757812 204.722656 L 224.757812 111.675781 C 224.757812 109.640625 223.109375 107.988281 221.074219 107.988281 C 219.039062 107.988281 217.390625 109.640625 217.390625 111.675781 L 217.390625 205.148438 L 197.402344 193.960938 C 199.636719 189.253906 200.890625 183.996094 200.890625 178.453125 C 200.890625 158.46875 184.648438 142.210938 164.679688 142.210938 C 144.714844 142.210938 128.46875 158.46875 128.46875 178.453125 C 128.46875 198.433594 144.714844 214.691406 164.679688 214.691406 C 176.46875 214.691406 186.960938 209.019531 193.574219 200.265625 L 217.390625 213.59375 L 217.390625 235.167969 C 194.710938 235.785156 172.917969 242.109375 155.453125 253.15625 C 146.226562 250.421875 133.523438 248.820312 120.542969 248.820312 L 97.632812 248.820312 L 97.632812 242.675781 C 97.632812 236.03125 92.230469 230.625 85.589844 230.625 L 73.25 230.625 L 73.25 225.246094 C 73.25 223.210938 71.601562 221.5625 69.570312 221.5625 L 32.648438 221.5625 C 30.617188 221.5625 28.964844 223.210938 28.964844 225.246094 L 28.964844 361.195312 C 28.964844 363.230469 30.617188 364.882812 32.648438 364.882812 L 69.570312 364.882812 C 71.601562 364.882812 73.25 363.230469 73.25 361.195312 L 73.25 354.105469 L 85.589844 354.105469 C 92.230469 354.105469 97.632812 348.699219 97.632812 342.050781 L 97.632812 334.214844 L 195.425781 356.925781 C 197.492188 357.378906 199.78125 357.59375 202.175781 357.59375 C 209.839844 357.59375 218.550781 355.390625 224.261719 351.707031 L 336.910156 277.707031 C 341.105469 275.003906 344.039062 270.773438 344.957031 266.09375 C 345.804688 261.796875 344.917969 257.496094 342.464844 253.984375 Z M 276.484375 149.582031 C 292.390625 149.582031 305.332031 162.53125 305.332031 178.449219 C 305.332031 194.371094 292.390625 207.320312 276.484375 207.320312 C 266.484375 207.320312 257.65625 202.195312 252.480469 194.4375 C 252.402344 194.15625 252.300781 193.878906 252.152344 193.609375 C 251.957031 193.257812 251.699219 192.964844 251.417969 192.707031 C 249.019531 188.496094 247.640625 183.632812 247.640625 178.449219 C 247.640625 162.53125 260.578125 149.582031 276.484375 149.582031 Z M 164.679688 207.320312 C 148.773438 207.320312 135.835938 194.371094 135.835938 178.453125 C 135.835938 162.53125 148.773438 149.582031 164.679688 149.582031 C 180.585938 149.582031 193.527344 162.535156 193.527344 178.453125 C 193.527344 194.371094 180.585938 207.320312 164.679688 207.320312 Z M 65.886719 357.511719 L 36.332031 357.511719 L 36.332031 228.933594 L 65.886719 228.933594 Z M 90.269531 252.46875 C 90.269531 252.480469 90.265625 252.492188 90.265625 252.507812 C 90.265625 252.519531 90.269531 252.53125 90.269531 252.546875 L 90.269531 329.464844 C 90.265625 329.484375 90.269531 329.5 90.269531 329.519531 L 90.269531 342.050781 C 90.269531 344.632812 88.171875 346.734375 85.589844 346.734375 L 73.25 346.734375 L 73.25 237.996094 L 85.589844 237.996094 C 88.171875 237.996094 90.269531 240.09375 90.269531 242.675781 Z M 221.074219 242.472656 C 245.109375 242.472656 267.632812 249.007812 285.25 260.984375 L 258.054688 272.210938 C 255.5625 264.785156 248.457031 259.488281 240.101562 259.488281 L 187.554688 259.488281 C 181.386719 259.488281 172.140625 258.078125 164.851562 256.15625 C 181.128906 247.292969 200.785156 242.472656 221.074219 242.472656 Z M 337.730469 264.671875 C 337.195312 267.394531 335.445312 269.886719 332.898438 271.527344 L 220.25 345.53125 C 214.425781 349.285156 203.777344 351.203125 197.042969 349.738281 L 97.632812 326.648438 L 97.632812 256.191406 L 120.542969 256.191406 C 134.410156 256.191406 147.796875 258.066406 156.367188 261.210938 L 156.664062 261.332031 C 156.695312 261.34375 156.730469 261.355469 156.765625 261.367188 C 164.992188 264.394531 178.804688 266.859375 187.558594 266.859375 L 240.101562 266.859375 C 246.28125 266.859375 251.347656 271.539062 251.632812 277.554688 C 251.644531 277.710938 251.648438 277.875 251.648438 278.039062 C 251.648438 278.753906 251.578125 279.453125 251.433594 280.171875 C 250.378906 285.410156 245.613281 289.210938 240.101562 289.210938 L 187.644531 289.210938 C 186.101562 289.148438 171.996094 288.871094 160.273438 299.007812 C 158.734375 300.339844 158.566406 302.664062 159.894531 304.207031 C 160.625 305.050781 161.652344 305.480469 162.683594 305.480469 C 163.535156 305.480469 164.394531 305.1875 165.089844 304.582031 C 174.929688 296.070312 187.242188 296.570312 187.355469 296.578125 C 187.421875 296.582031 187.488281 296.582031 187.558594 296.582031 L 240.101562 296.582031 C 249.105469 296.582031 256.90625 290.292969 258.65625 281.625 C 258.773438 281.027344 258.863281 280.429688 258.921875 279.828125 L 320.21875 254.519531 C 320.242188 254.507812 320.269531 254.5 320.292969 254.488281 C 325.90625 252.023438 333.296875 253.726562 336.429688 258.210938 C 337.722656 260.0625 338.1875 262.359375 337.730469 264.671875 Z M 337.730469 264.671875 " fill-opacity="1" fill-rule="nonzero"/></g><path fill="#000000" d="M 162.769531 168.894531 L 173.199219 168.894531 C 175.234375 168.894531 176.882812 167.246094 176.882812 165.210938 C 176.882812 163.175781 175.234375 161.523438 173.199219 161.523438 L 168.359375 161.523438 L 168.359375 157.773438 C 168.359375 155.738281 166.710938 154.085938 164.675781 154.085938 C 162.644531 154.085938 160.996094 155.738281 160.996094 157.773438 L 160.996094 161.6875 C 156.160156 162.535156 152.472656 166.753906 152.472656 171.832031 C 152.472656 177.511719 157.089844 182.136719 162.769531 182.136719 L 166.585938 182.136719 C 168.203125 182.136719 169.515625 183.453125 169.515625 185.070312 C 169.515625 186.691406 168.203125 188.007812 166.585938 188.007812 L 164.683594 188.007812 C 164.683594 188.007812 164.679688 188.003906 164.675781 188.003906 C 164.671875 188.003906 164.671875 188.007812 164.667969 188.007812 L 156.15625 188.007812 C 154.121094 188.007812 152.472656 189.65625 152.472656 191.691406 C 152.472656 193.726562 154.121094 195.378906 156.15625 195.378906 L 160.996094 195.378906 L 160.996094 199.128906 C 160.996094 201.164062 162.644531 202.816406 164.675781 202.816406 C 166.710938 202.816406 168.359375 201.164062 168.359375 199.128906 L 168.359375 195.214844 C 173.191406 194.367188 176.878906 190.148438 176.878906 185.070312 C 176.878906 179.390625 172.261719 174.765625 166.585938 174.765625 L 162.769531 174.765625 C 161.152344 174.765625 159.835938 173.449219 159.835938 171.832031 C 159.835938 170.214844 161.152344 168.894531 162.769531 168.894531 Z M 162.769531 168.894531 " fill-opacity="1" fill-rule="nonzero"/><path fill="#000000" d="M 274.574219 182.136719 L 278.390625 182.136719 C 280.007812 182.136719 281.320312 183.453125 281.320312 185.070312 C 281.320312 186.691406 280.007812 188.007812 278.390625 188.007812 L 276.488281 188.007812 C 276.488281 188.007812 276.484375 188.007812 276.480469 188.007812 C 276.480469 188.007812 276.476562 188.007812 276.476562 188.007812 L 267.960938 188.007812 C 265.925781 188.007812 264.277344 189.65625 264.277344 191.691406 C 264.277344 193.726562 265.925781 195.378906 267.960938 195.378906 L 272.800781 195.378906 L 272.800781 199.128906 C 272.800781 201.167969 274.449219 202.816406 276.480469 202.816406 C 278.515625 202.816406 280.164062 201.167969 280.164062 199.128906 L 280.164062 195.214844 C 284.996094 194.367188 288.683594 190.148438 288.683594 185.074219 C 288.683594 179.390625 284.066406 174.765625 278.390625 174.765625 L 274.574219 174.765625 C 272.957031 174.765625 271.640625 173.449219 271.640625 171.832031 C 271.640625 170.214844 272.957031 168.898438 274.574219 168.898438 L 285.003906 168.898438 C 287.039062 168.898438 288.683594 167.246094 288.683594 165.210938 C 288.683594 163.175781 287.039062 161.527344 285.003906 161.527344 L 280.164062 161.527344 L 280.164062 157.773438 C 280.164062 155.738281 278.515625 154.089844 276.480469 154.089844 C 274.449219 154.089844 272.800781 155.738281 272.800781 157.773438 L 272.800781 161.691406 C 267.964844 162.535156 264.277344 166.753906 264.277344 171.832031 C 264.277344 177.511719 268.898438 182.136719 274.574219 182.136719 Z M 274.574219 182.136719 " fill-opacity="1" fill-rule="nonzero"/><path fill="#000000" d="M 132.246094 81.71875 C 132.390625 82.894531 135.972656 110.664062 157.339844 124.292969 C 164.871094 129.09375 173.589844 131.496094 183.414062 131.496094 C 191.097656 131.496094 199.457031 130.027344 208.449219 127.089844 C 208.476562 127.082031 208.5 127.066406 208.527344 127.054688 C 208.578125 127.035156 208.632812 127.023438 208.683594 127.003906 C 208.710938 126.992188 208.738281 126.976562 208.765625 126.964844 C 208.882812 126.914062 209 126.859375 209.113281 126.796875 C 209.140625 126.78125 209.164062 126.761719 209.191406 126.746094 C 209.210938 126.734375 209.234375 126.71875 209.253906 126.703125 C 209.304688 126.671875 209.355469 126.644531 209.402344 126.609375 C 209.484375 126.550781 209.5625 126.488281 209.640625 126.425781 C 209.6875 126.386719 209.730469 126.351562 209.777344 126.3125 C 209.808594 126.28125 209.84375 126.253906 209.878906 126.222656 C 209.898438 126.199219 209.917969 126.175781 209.941406 126.152344 C 210.03125 126.058594 210.117188 125.96875 210.199219 125.863281 C 210.21875 125.839844 210.234375 125.808594 210.253906 125.785156 C 210.261719 125.769531 210.273438 125.753906 210.28125 125.742188 C 210.320312 125.6875 210.355469 125.636719 210.390625 125.582031 C 210.417969 125.542969 210.449219 125.503906 210.472656 125.460938 C 210.492188 125.429688 210.5 125.398438 210.519531 125.367188 C 210.558594 125.292969 210.59375 125.222656 210.628906 125.148438 C 210.667969 125.066406 210.703125 124.984375 210.734375 124.898438 C 210.761719 124.832031 210.785156 124.765625 210.808594 124.695312 C 210.832031 124.625 210.851562 124.554688 210.867188 124.484375 C 210.890625 124.394531 210.90625 124.304688 210.921875 124.214844 C 210.933594 124.140625 210.949219 124.066406 210.957031 123.992188 C 210.964844 123.917969 210.96875 123.84375 210.972656 123.769531 C 210.976562 123.683594 210.976562 123.59375 210.976562 123.503906 C 210.972656 123.425781 210.972656 123.351562 210.964844 123.277344 C 210.960938 123.195312 210.949219 123.117188 210.933594 123.035156 C 210.929688 122.992188 210.933594 122.949219 210.925781 122.902344 C 206.9375 101.695312 197.84375 87.058594 183.894531 79.402344 C 161.683594 67.203125 135.628906 77.414062 134.53125 77.855469 C 134.453125 77.886719 134.386719 77.933594 134.3125 77.96875 C 134.195312 78.027344 134.082031 78.078125 133.976562 78.144531 C 133.871094 78.210938 133.773438 78.285156 133.675781 78.359375 C 133.585938 78.425781 133.496094 78.496094 133.410156 78.574219 C 133.320312 78.660156 133.234375 78.75 133.152344 78.847656 C 133.078125 78.929688 133.003906 79.011719 132.9375 79.101562 C 132.867188 79.199219 132.804688 79.300781 132.746094 79.40625 C 132.683594 79.507812 132.625 79.609375 132.574219 79.71875 C 132.527344 79.820312 132.488281 79.925781 132.453125 80.03125 C 132.410156 80.148438 132.367188 80.265625 132.335938 80.390625 C 132.308594 80.496094 132.292969 80.605469 132.277344 80.71875 C 132.257812 80.84375 132.238281 80.96875 132.234375 81.097656 C 132.226562 81.214844 132.234375 81.332031 132.238281 81.449219 C 132.246094 81.539062 132.234375 81.628906 132.246094 81.71875 Z M 180.398438 85.886719 C 190.46875 91.433594 197.617188 101.558594 201.734375 116.003906 L 168.976562 96.59375 C 167.226562 95.554688 164.96875 96.132812 163.933594 97.886719 C 162.898438 99.636719 163.476562 101.898438 165.226562 102.933594 L 197.984375 122.34375 C 183.347656 125.679688 171.042969 124.273438 161.339844 118.101562 C 146.640625 108.757812 141.554688 90.78125 140.082031 83.753906 C 146.949219 81.667969 165.140625 77.484375 180.398438 85.886719 Z M 180.398438 85.886719 " fill-opacity="1" fill-rule="nonzero"/><path fill="#000000" d="M 230.230469 123.035156 C 230.21875 123.117188 230.203125 123.195312 230.199219 123.277344 C 230.191406 123.351562 230.191406 123.429688 230.1875 123.503906 C 230.1875 123.59375 230.1875 123.683594 230.191406 123.769531 C 230.195312 123.84375 230.199219 123.917969 230.207031 123.992188 C 230.214844 124.066406 230.230469 124.140625 230.242188 124.214844 C 230.257812 124.304688 230.273438 124.394531 230.296875 124.480469 C 230.3125 124.554688 230.332031 124.625 230.355469 124.691406 C 230.378906 124.761719 230.402344 124.832031 230.429688 124.898438 C 230.460938 124.984375 230.496094 125.066406 230.535156 125.148438 C 230.566406 125.222656 230.605469 125.292969 230.644531 125.363281 C 230.664062 125.394531 230.671875 125.429688 230.691406 125.460938 C 230.714844 125.503906 230.746094 125.539062 230.773438 125.582031 C 230.808594 125.636719 230.84375 125.6875 230.878906 125.738281 C 230.890625 125.753906 230.898438 125.769531 230.910156 125.78125 C 230.929688 125.808594 230.945312 125.835938 230.964844 125.863281 C 231.046875 125.96875 231.136719 126.0625 231.226562 126.152344 C 231.246094 126.175781 231.261719 126.199219 231.285156 126.21875 C 231.316406 126.25 231.355469 126.28125 231.386719 126.3125 C 231.433594 126.351562 231.476562 126.386719 231.523438 126.425781 C 231.601562 126.488281 231.679688 126.550781 231.765625 126.609375 C 231.808594 126.640625 231.859375 126.671875 231.90625 126.703125 C 231.929688 126.714844 231.953125 126.730469 231.976562 126.746094 C 232 126.761719 232.023438 126.78125 232.050781 126.792969 C 232.164062 126.859375 232.285156 126.914062 232.402344 126.964844 C 232.429688 126.976562 232.453125 126.992188 232.480469 127 C 232.53125 127.023438 232.585938 127.035156 232.636719 127.054688 C 232.664062 127.0625 232.6875 127.078125 232.714844 127.089844 C 241.710938 130.027344 250.066406 131.496094 257.75 131.496094 C 267.574219 131.496094 276.296875 129.09375 283.824219 124.292969 C 305.191406 110.664062 308.773438 82.894531 308.917969 81.71875 C 308.925781 81.640625 308.917969 81.566406 308.921875 81.484375 C 308.929688 81.351562 308.9375 81.21875 308.929688 81.085938 C 308.925781 80.96875 308.90625 80.855469 308.890625 80.742188 C 308.871094 80.621094 308.855469 80.5 308.824219 80.382812 C 308.796875 80.265625 308.757812 80.15625 308.714844 80.042969 C 308.675781 79.933594 308.636719 79.824219 308.585938 79.714844 C 308.535156 79.609375 308.480469 79.511719 308.421875 79.414062 C 308.359375 79.308594 308.296875 79.203125 308.222656 79.101562 C 308.15625 79.015625 308.085938 78.933594 308.011719 78.847656 C 307.929688 78.753906 307.84375 78.660156 307.75 78.574219 C 307.667969 78.496094 307.578125 78.429688 307.484375 78.359375 C 307.386719 78.285156 307.292969 78.210938 307.1875 78.148438 C 307.078125 78.082031 306.964844 78.027344 306.851562 77.96875 C 306.777344 77.933594 306.710938 77.886719 306.632812 77.855469 C 305.535156 77.414062 279.484375 67.207031 257.269531 79.402344 C 243.320312 87.058594 234.226562 101.695312 230.238281 122.90625 C 230.230469 122.949219 230.234375 122.992188 230.230469 123.035156 Z M 260.769531 85.886719 C 276.03125 77.484375 294.230469 81.671875 301.089844 83.753906 C 299.632812 90.765625 294.59375 108.6875 279.871094 118.074219 C 270.160156 124.269531 257.839844 125.683594 243.179688 122.34375 L 275.941406 102.933594 C 277.691406 101.898438 278.269531 99.636719 277.234375 97.886719 C 276.195312 96.132812 273.9375 95.554688 272.1875 96.59375 L 239.429688 116 C 243.550781 101.558594 250.699219 91.433594 260.769531 85.886719 Z M 260.769531 85.886719 " fill-opacity="1" fill-rule="nonzero"/><g clip-path="url(#ce34d920b0)"><path fill="#000000" d="M 217.867188 99.613281 C 217.914062 99.652344 217.964844 99.683594 218.015625 99.722656 C 218.074219 99.769531 218.128906 99.820312 218.1875 99.863281 C 218.234375 99.894531 218.28125 99.921875 218.324219 99.949219 C 218.429688 100.019531 218.539062 100.078125 218.652344 100.132812 C 218.714844 100.164062 218.773438 100.207031 218.839844 100.234375 C 218.871094 100.246094 218.902344 100.257812 218.933594 100.269531 C 219.074219 100.324219 219.21875 100.367188 219.363281 100.40625 C 219.382812 100.410156 219.402344 100.421875 219.425781 100.425781 C 219.484375 100.441406 219.542969 100.460938 219.601562 100.46875 C 219.804688 100.511719 220.015625 100.53125 220.222656 100.535156 C 220.246094 100.539062 220.265625 100.542969 220.289062 100.542969 C 220.292969 100.542969 220.296875 100.542969 220.300781 100.542969 C 220.304688 100.542969 220.308594 100.546875 220.316406 100.546875 C 220.550781 100.546875 220.78125 100.519531 221.015625 100.472656 C 221.027344 100.472656 221.042969 100.472656 221.058594 100.46875 C 221.113281 100.457031 221.160156 100.433594 221.214844 100.421875 C 221.367188 100.382812 221.519531 100.339844 221.671875 100.277344 C 221.703125 100.265625 221.734375 100.257812 221.765625 100.242188 C 221.824219 100.21875 221.878906 100.183594 221.933594 100.152344 C 222.050781 100.097656 222.164062 100.035156 222.277344 99.96875 C 222.324219 99.9375 222.367188 99.910156 222.414062 99.878906 C 222.46875 99.84375 222.519531 99.796875 222.570312 99.757812 C 222.621094 99.71875 222.675781 99.6875 222.726562 99.644531 C 239.019531 85.511719 247.070312 70.277344 246.652344 54.359375 C 245.988281 29.011719 224.050781 11.632812 223.117188 10.90625 C 223.054688 10.859375 222.984375 10.828125 222.921875 10.785156 C 222.808594 10.707031 222.699219 10.632812 222.578125 10.566406 C 222.476562 10.515625 222.371094 10.472656 222.265625 10.429688 C 222.152344 10.378906 222.039062 10.332031 221.921875 10.296875 C 221.808594 10.261719 221.695312 10.238281 221.578125 10.214844 C 221.460938 10.191406 221.34375 10.171875 221.226562 10.160156 C 221.113281 10.144531 221 10.144531 220.886719 10.144531 C 220.761719 10.144531 220.636719 10.144531 220.515625 10.15625 C 220.40625 10.164062 220.300781 10.183594 220.195312 10.203125 C 220.066406 10.226562 219.941406 10.25 219.820312 10.289062 C 219.710938 10.320312 219.609375 10.359375 219.503906 10.402344 C 219.386719 10.449219 219.273438 10.492188 219.164062 10.550781 C 219.050781 10.609375 218.945312 10.679688 218.839844 10.746094 C 218.769531 10.792969 218.695312 10.824219 218.628906 10.875 C 217.6875 11.59375 195.523438 28.683594 194.527344 54.019531 C 193.90625 69.925781 201.757812 85.265625 217.867188 99.613281 Z M 201.886719 54.355469 C 202.546875 36.9375 215.507812 23.480469 220.828125 18.667969 C 226.082031 23.53125 238.832031 37.085938 239.292969 54.550781 C 239.59375 66.078125 234.472656 77.382812 224.050781 88.246094 L 224.300781 50.125 C 224.3125 48.085938 222.675781 46.425781 220.640625 46.414062 C 220.632812 46.414062 220.625 46.414062 220.617188 46.414062 C 218.59375 46.414062 216.949219 48.046875 216.933594 50.074219 L 216.6875 88.195312 C 206.425781 77.21875 201.449219 65.863281 201.886719 54.355469 Z M 201.886719 54.355469 " fill-opacity="1" fill-rule="nonzero"/></g></svg>