<svg xmlns="http://www.w3.org/2000/svg" xmlns:xlink="http://www.w3.org/1999/xlink" width="32.812" zoomAndPan="magnify" viewBox="0 0 375 374.999991" height="32.812" preserveAspectRatio="xMidYMid meet" version="1.0">
    <defs>
      <clipPath id="b37a6bf770">
        <path d="M 14 83.398438 L 361 83.398438 L 361 291.898438 L 14 291.898438 Z M 14 83.398438 " clip-rule="nonzero"/>
      </clipPath>
    </defs>
    <g clip-path="url(#b37a6bf770)">
      <path fill="#000000" stroke="#000000" stroke-width="5" d="M 187.625 122.15625 C 151.554688 122.15625 122.179688 151.550781 122.179688 187.648438 C 122.179688 223.75 151.554688 253.144531 187.625 253.144531 C 223.699219 253.144531 253.070312 223.75 253.070312 187.648438 C 253.070312 151.550781 223.699219 122.15625 187.625 122.15625 Z M 187.625 237.734375 C 160.023438 237.734375 137.578125 215.273438 137.578125 187.648438 C 137.578125 160.027344 160.023438 137.566406 187.625 137.566406 C 215.226562 137.566406 237.671875 160.027344 237.671875 187.648438 C 237.671875 215.273438 215.226562 237.734375 187.625 237.734375 Z M 195.324219 160.683594 C 195.324219 164.921875 191.859375 168.386719 187.625 168.386719 C 177 168.386719 168.375 177.015625 168.375 187.648438 C 168.375 191.886719 164.910156 195.355469 160.675781 195.355469 C 156.441406 195.355469 152.976562 191.886719 152.976562 187.648438 C 152.976562 168.542969 168.53125 152.976562 187.625 152.976562 C 191.859375 152.976562 195.324219 156.445312 195.324219 160.683594 Z M 359.824219 183.796875 C 324.332031 122.003906 258.347656 83.632812 187.625 83.632812 C 116.90625 83.632812 50.917969 122.003906 15.425781 183.796875 C 14.078125 186.1875 14.078125 189.113281 15.425781 191.464844 C 50.917969 253.296875 116.90625 291.667969 187.625 291.667969 C 258.347656 291.667969 324.332031 253.296875 359.824219 191.503906 C 361.210938 189.113281 361.210938 186.1875 359.824219 183.796875 Z M 187.625 276.257812 C 123.871094 276.257812 64.277344 242.433594 31.015625 187.648438 C 64.277344 132.867188 123.871094 99.042969 187.625 99.042969 C 251.378906 99.042969 310.972656 132.867188 344.234375 187.648438 C 310.972656 242.433594 251.378906 276.257812 187.625 276.257812 Z M 187.625 276.257812 " fill-opacity="1" fill-rule="nonzero"/>
    </g>
  </svg>
  