<svg xmlns="http://www.w3.org/2000/svg" xmlns:xlink="http://www.w3.org/1999/xlink" width="500" zoomAndPan="magnify" viewBox="0 0 375 374.999991" height="500" preserveAspectRatio="xMidYMid meet" version="1.0"><defs><clipPath id="0fafdb0d93"><path d="M 117 27.421875 L 278 27.421875 L 278 275 L 117 275 Z M 117 27.421875 " clip-rule="nonzero"/></clipPath><clipPath id="e07affeea2"><path d="M 37.5 226 L 357.75 226 L 357.75 347.671875 L 37.5 347.671875 Z M 37.5 226 " clip-rule="nonzero"/></clipPath></defs><g clip-path="url(#0fafdb0d93)"><path fill="#000000" d="M 211.730469 226.128906 L 211.730469 41.527344 C 211.730469 37.789062 210.28125 34.207031 207.613281 31.539062 C 204.945312 28.945312 201.359375 27.421875 197.625 27.421875 C 193.890625 27.421875 190.304688 28.945312 187.636719 31.539062 C 184.96875 34.207031 183.519531 37.789062 183.519531 41.527344 L 183.519531 226.128906 C 183.519531 226.128906 156.601562 199.210938 141.582031 184.191406 C 138.914062 181.523438 135.328125 180.074219 131.59375 180.074219 C 127.855469 180.074219 124.273438 181.523438 121.605469 184.191406 C 116.113281 189.679688 116.113281 198.601562 121.605469 204.089844 L 188.171875 270.65625 C 190.6875 273.175781 194.042969 274.546875 197.625 274.546875 C 201.207031 274.546875 204.5625 273.175781 207.078125 270.65625 L 273.644531 204.089844 C 279.136719 198.601562 279.136719 189.679688 273.644531 184.191406 C 270.976562 181.523438 267.394531 180.074219 263.65625 180.074219 C 259.921875 180.074219 256.335938 181.523438 253.667969 184.191406 C 238.570312 199.210938 211.730469 226.128906 211.730469 226.128906 Z M 211.730469 226.128906 " fill-opacity="1" fill-rule="evenodd"/></g><g clip-path="url(#e07affeea2)"><path fill="#000000" d="M 37.5 320.984375 C 37.5 328.074219 40.320312 334.859375 45.355469 339.816406 C 50.386719 344.847656 57.171875 347.671875 64.1875 347.671875 L 331.0625 347.671875 C 338.152344 347.671875 344.941406 344.847656 349.894531 339.816406 C 354.929688 334.785156 357.75 327.996094 357.75 320.984375 L 357.75 240.234375 C 357.75 232.457031 351.421875 226.128906 343.644531 226.128906 C 339.90625 226.128906 336.324219 227.652344 333.65625 230.246094 C 330.984375 232.914062 329.539062 236.496094 329.539062 240.234375 L 329.539062 306.191406 C 329.539062 313.585938 323.589844 319.535156 316.195312 319.535156 L 79.054688 319.535156 C 71.660156 319.535156 65.710938 313.585938 65.710938 306.191406 L 65.710938 240.234375 C 65.710938 236.496094 64.1875 232.914062 61.59375 230.246094 C 58.925781 227.578125 55.34375 226.128906 51.605469 226.128906 C 43.828125 226.128906 37.5 232.457031 37.5 240.234375 Z M 37.5 320.984375 " fill-opacity="1" fill-rule="evenodd"/></g></svg>